<?xml version="1.0" encoding="UTF-8" ?>
<!DOCTYPE svg PUBLIC "-//W3C//DTD SVG 1.1//EN" "http://www.w3.org/Graphics/SVG/1.1/DTD/svg11.dtd">
<svg width="190pt" height="110pt" viewBox="0 0 190 110" version="1.1" xmlns="http://www.w3.org/2000/svg">
<path fill="#fefffe" d=" M 0.00 0.00 L 190.00 0.00 L 190.00 110.00 L 0.00 110.00 L 0.00 0.00 Z" />
<path fill="#9ccc3c" d=" M 21.03 11.08 C 22.54 8.77 25.58 9.71 27.89 9.41 C 25.12 13.50 23.19 18.14 20.11 22.00 C 18.25 22.55 16.27 22.51 14.35 22.69 C 16.58 18.83 18.28 14.62 21.03 11.08 Z" />
<path fill="#015e85" d=" M 92.56 9.59 C 96.20 9.53 99.83 9.53 103.46 9.57 C 103.39 17.50 103.48 25.44 103.40 33.37 C 99.81 33.38 96.22 33.37 92.63 33.37 C 92.57 25.44 92.63 17.52 92.56 9.59 Z" />
<path fill="#015e85" d=" M 109.35 9.52 C 115.74 9.88 122.35 8.66 128.57 10.51 C 133.35 11.64 136.20 16.53 137.14 21.03 C 137.70 27.60 137.39 34.22 137.41 40.81 C 139.00 41.03 140.60 41.24 142.19 41.46 C 141.23 44.80 140.00 48.06 139.10 51.42 C 127.91 51.36 116.71 51.49 105.52 51.34 C 105.54 47.98 105.55 44.61 105.50 41.24 C 112.60 41.11 119.71 41.22 126.81 41.15 C 126.24 33.99 128.15 26.41 125.51 19.56 C 119.05 19.47 112.59 19.58 106.13 19.47 C 107.28 16.18 108.38 12.87 109.35 9.52 Z" />
<path fill="#015e85" d=" M 51.89 9.55 C 58.93 9.53 65.97 9.54 73.02 9.52 C 77.26 9.44 81.75 10.21 85.22 12.80 C 88.01 15.78 89.70 19.85 89.66 23.95 C 89.75 33.10 89.69 42.26 89.67 51.41 C 86.30 51.41 82.92 51.42 79.54 51.42 C 79.49 45.28 79.53 39.14 79.52 33.00 C 79.44 28.55 80.06 23.93 78.36 19.68 C 74.07 19.40 69.77 19.47 65.48 19.49 C 65.43 26.35 65.53 33.22 65.44 40.08 C 65.42 44.01 63.78 48.11 60.45 50.37 C 56.75 52.48 52.33 51.87 48.28 51.53 C 47.89 48.14 47.75 44.72 47.79 41.31 C 50.34 41.26 52.90 41.10 55.43 40.73 C 55.52 33.67 55.42 26.62 55.49 19.57 C 53.39 19.51 51.29 19.46 49.19 19.38 C 50.09 16.10 51.00 12.83 51.89 9.55 Z" />
<path fill="#015e85" d=" M 142.31 19.50 C 143.33 16.16 144.32 12.80 145.44 9.49 C 153.77 10.04 162.37 8.39 170.50 10.83 C 175.86 12.41 179.14 17.86 179.26 23.27 C 179.60 32.66 179.32 42.07 179.39 51.47 C 175.79 51.44 172.19 51.45 168.59 51.39 C 168.56 42.59 168.61 33.79 168.58 24.99 C 168.71 23.01 167.99 21.01 166.43 19.75 C 158.41 19.21 150.35 19.75 142.31 19.50 Z" />
<path fill="#9ccc3c" d=" M 26.99 17.36 C 31.82 17.24 36.65 17.22 41.48 17.36 C 42.55 19.07 43.66 20.75 44.80 22.41 C 39.66 22.50 34.52 22.50 29.38 22.45 C 28.59 20.75 27.79 19.05 26.99 17.36 Z" />
<path fill="#9ccc3c" d=" M 6.16 23.96 C 4.84 21.59 7.09 19.33 7.89 17.20 C 10.85 21.25 12.77 25.92 15.45 30.14 C 14.54 31.84 13.63 33.53 12.72 35.23 C 10.53 31.49 7.94 27.94 6.16 23.96 Z" />
<path fill="#015e85" d=" M 24.09 21.88 C 26.36 24.62 29.39 26.15 33.01 25.63 C 32.36 27.37 31.38 29.02 31.14 30.88 C 31.52 32.49 32.37 33.93 33.04 35.44 C 31.32 35.45 29.60 35.46 27.88 35.46 C 26.66 37.03 25.42 38.58 24.14 40.11 C 23.38 38.58 22.64 37.05 21.89 35.52 C 19.98 35.49 18.08 35.47 16.17 35.44 C 16.99 33.95 17.82 32.46 18.64 30.98 C 17.84 29.17 17.00 27.38 16.22 25.56 C 18.06 25.52 19.90 25.51 21.74 25.51 C 22.53 24.30 23.31 23.09 24.09 21.88 Z" />
<path fill="#9ccc3c" d=" M 35.04 31.97 C 33.66 29.50 36.12 27.21 36.93 24.98 C 39.75 29.49 42.04 34.30 44.62 38.94 C 43.51 40.25 42.41 41.56 41.31 42.87 C 39.29 39.20 36.83 35.77 35.04 31.97 Z" />
<path fill="#015e85" d=" M 143.53 29.51 C 147.19 29.49 150.85 29.48 154.51 29.50 C 154.52 36.81 154.54 44.12 154.50 51.43 C 150.84 51.45 147.19 51.45 143.54 51.44 C 143.54 44.13 143.53 36.82 143.53 29.51 Z" />
<path fill="#9ccc3c" d=" M 5.55 38.63 C 10.41 38.60 15.33 38.11 20.16 38.84 C 21.44 40.09 22.20 41.74 23.09 43.27 C 18.41 43.42 13.70 43.76 9.04 43.26 C 6.90 42.78 6.54 40.25 5.55 38.63 Z" />
<path fill="#9ccc3c" d=" M 29.54 38.54 C 31.40 38.54 33.26 38.53 35.12 38.54 C 32.95 42.92 30.10 46.92 27.86 51.27 C 25.97 51.30 24.07 51.32 22.18 51.33 C 24.06 46.75 26.93 42.71 29.54 38.54 Z" />
<path fill="#015e85" d=" M 20.64 58.29 C 24.54 58.14 28.44 58.14 32.34 58.28 C 32.32 66.08 32.33 73.87 32.32 81.67 C 28.43 81.81 24.53 81.81 20.64 81.66 C 20.67 73.87 20.67 66.08 20.64 58.29 Z" />
<path fill="#015e85" d=" M 36.82 58.27 C 48.39 58.04 59.97 58.24 71.54 58.16 C 71.56 61.63 71.55 65.09 71.58 68.55 C 69.52 68.62 67.46 68.67 65.40 68.74 C 65.46 79.09 65.42 89.44 65.42 99.79 C 62.03 99.79 58.64 99.80 55.24 99.80 C 55.27 89.58 55.18 79.36 55.30 69.15 C 48.30 68.13 41.21 68.87 34.17 68.62 C 35.00 65.16 35.99 61.73 36.82 58.27 Z" />
<path fill="#015e85" d=" M 75.31 58.18 C 78.96 58.17 82.61 58.18 86.27 58.19 C 86.25 72.06 86.24 85.93 86.26 99.79 C 82.60 99.79 78.94 99.78 75.27 99.78 C 75.34 85.91 75.29 72.05 75.31 58.18 Z" />
<path fill="#015e85" d=" M 92.46 58.18 C 99.28 58.25 106.12 57.99 112.93 58.31 C 116.53 58.43 119.87 60.07 122.36 62.63 C 125.92 65.59 126.47 70.59 126.59 74.92 C 126.66 83.21 126.57 91.50 126.63 99.79 C 123.02 100.24 119.37 100.32 115.75 99.91 C 115.74 91.58 115.74 83.26 115.77 74.94 C 115.63 73.07 115.98 70.83 114.53 69.37 C 112.83 68.55 110.89 68.70 109.06 68.63 C 102.39 68.63 95.72 68.70 89.05 68.59 C 90.33 65.17 91.53 61.72 92.46 58.18 Z" />
<path fill="#015e85" d=" M 128.67 58.31 C 132.38 58.15 136.09 58.16 139.80 58.16 C 139.75 66.04 139.78 73.92 139.78 81.79 C 136.07 81.79 132.37 81.80 128.67 81.64 C 128.75 73.87 128.74 66.09 128.67 58.31 Z" />
<path fill="#015e85" d=" M 145.27 58.22 C 152.45 58.26 159.64 57.92 166.81 58.39 C 170.86 58.61 174.27 61.23 176.85 64.16 C 179.14 67.60 179.40 71.92 179.41 75.94 C 179.41 83.92 179.39 91.91 179.41 99.89 C 175.79 100.41 172.13 100.11 168.53 99.61 C 168.55 89.63 168.79 79.65 168.36 69.68 C 159.86 67.53 150.95 69.15 142.27 68.64 C 143.24 65.16 144.30 61.70 145.27 58.22 Z" />
<path fill="#015e85" d=" M 90.64 78.30 C 94.30 78.32 97.96 78.31 101.62 78.39 C 101.50 85.65 101.65 92.90 101.51 100.15 C 97.88 100.26 94.25 100.21 90.65 99.79 C 90.70 92.62 90.68 85.46 90.64 78.30 Z" />
<path fill="#015e85" d=" M 143.50 78.32 C 147.18 78.32 150.86 78.31 154.54 78.36 C 154.50 85.50 154.53 92.64 154.51 99.79 C 150.84 99.79 147.17 99.80 143.51 99.81 C 143.54 92.65 143.55 85.48 143.50 78.32 Z" />
</svg>
