<svg viewBox="0 0 190 110" xmlns="http://www.w3.org/2000/svg"><path fill="#fefffe" d="M0 0h190v110H0V0z"/><path fill="#9ccc3c" d="M21 11c1.5-2.2 4.6-1.3 7-1.6-3 4-4.8 8.7-8 12.6-1.8.6-3.7.5-5.7.7 2.3-4 4-8 6.7-11.6z"/><path fill="#015e85" d="M92.6 9.6h11c-.2 8 0 15.8-.2 23.8H92.6V9.6zM109.3 9.5c6.4.4 13-.8 19.3 1 4.8 1 7.6 6 8.5 10.5.7 6.6.4 13.2.4 19.8l4.8.7c-1 3.3-2.2 6.6-3 10-11.3 0-22.5 0-33.7-.2v-10c7-.2 14.2 0 21.3 0-.6-7.3 1.4-15-1.3-21.7H106c1.3-3.4 2.4-6.7 3.3-10zM52 9.6h21c4.3-.2 8.8.6 12.2 3.2 2.8 3 4.5 7 4.5 11v27.6H79.5V33c0-4.4.6-9-1-13.3-4.4-.3-8.7-.2-13-.2V40c0 4-1.7 8-5 10.4-3.8 2-8.2 1.5-12.2 1-.4-3.3-.5-6.7-.5-10 2.5 0 5-.3 7.6-.7v-21c-2-.2-4-.2-6.2-.3L52 9.6zM142.3 19.5l3-10c8.5.5 17-1 25.2 1.3 5.4 1.6 8.6 7 8.8 12.5.3 9.4 0 18.8 0 28.2h-10.7V25c0-2-.6-4-2.2-5.3-8-.5-16 0-24-.2z"/><path fill="#9ccc3c" d="M27 17.4c4.8-.2 9.6-.2 14.5 0 1 1.7 2.2 3.4 3.3 5H29.4l-2.4-5zM6.2 24c-1.4-2.4 1-4.7 1.7-6.8 2.8 4 4.8 8.7 7.4 13-1 1.6-1.8 3.3-2.7 5C10.5 31.5 8 28 6.2 24z"/><path fill="#015e85" d="M24 22c2.4 2.6 5.4 4 9 3.6-.6 1.8-1.6 3.4-2 5.3.5 1.5 1.4 3 2 4.4h-5l-4 4.7-2-4.5H16l2.4-4.5-2.4-5.4h5.5l2.4-3.7z"/><path fill="#9ccc3c" d="M35 32c-1.3-2.5 1-4.8 2-7 2.8 4.5 5 9.3 7.6 14l-3.3 4c-2-3.8-4.5-7.2-6.3-11z"/><path fill="#015e85" d="M143.5 29.5h11v22h-11v-22z"/><path fill="#9ccc3c" d="M5.5 38.6c5 0 9.8-.5 14.7.2 1.2 1.3 2 3 3 4.5-4.8 0-9.5.5-14.2 0-2-.5-2.5-3-3.5-4.7zM29.5 38.5H35c-2 4.4-5 8.4-7 12.8H22c2-4.5 4.7-8.6 7.3-12.8z"/><path fill="#015e85" d="M20.6 58.3c4-.2 7.8-.2 11.7 0v23.4H20.6V58.3zM36.8 58.3c11.6-.3 23.2 0 34.7 0v10.3h-6V100H55V69.2c-7-1-14-.3-21-.6l2.6-10.3zM75.3 58.2h11v41.6h-11V58.2zM92.5 58.2c6.8 0 13.6-.2 20.4 0 3.5.2 7 2 9.4 4.4 3.5 3 4 8 4.2 12.3v24.8c-3.6.4-7.2.5-10.8 0V75c-.2-1.7.2-4-1.3-5.4-1.7-1-3.6-.7-5.4-.8H89c1.3-3.4 2.5-7 3.5-10.4zM128.7 58.3h11v23.5c-3.6 0-7.3 0-11-.2V58.3zM145.3 58.2c7 0 14.3-.3 21.5.2 4 .2 7.5 2.8 10 5.8 2.3 3.4 2.6 7.7 2.6 11.7v24c-3.6.4-7.3 0-11-.4.2-10 .4-20 0-30-8.5-2-17.5-.4-26-1 .8-3.4 2-7 3-10.4z"/><path fill="#015e85" d="M90.6 78.3h11v22c-3.7 0-7.3 0-11-.5V78.3zM143.5 78.3h11V100h-11V78.3z"/></svg>