<svg viewBox="0 0 249 104" xmlns="http://www.w3.org/2000/svg"><path fill="#fff" d="M0 0h249v104H0V77.4l.6 12.8 247.7 13V14.5C214.7 12.2 181 11 147.3 9 98.3 6.3 49 3.6 0 1.2V0z"/><path d="M0 1.3c49 2.4 98.2 5 147.3 7.6 33.6 2 67.4 3.2 101 5.4v89C165.7 98.7 83.3 94.5.6 90L0 77.4v-76z"/><path fill="#fff" d="M4.5 5.7c80 4.4 159.8 8.3 239.7 12.7v80.3c-80-4-159.8-8.4-239.6-12.5V5.7z"/><path d="M39.8 19.3H45c-1 2.7-2.4 5.2-3 8 3.3.7 6.8.8 10 1.3l1.2 2V39c-.4.8-.8 1.5-1 2.2-4.8.2-9.5-.7-14.2-.6-3-.2-6.5.2-9.4-1.2-1.3-2.5-.7-5.4-1-8-1.4 0-3 0-4.5-.2V40c-1.4-.4-3.5 0-4.2-2-.2-3.3-.2-6.7 0-10l1.2-1.2c4 0 8.3.2 12.5.5v8.3c5.3.6 10.7.7 16 1v-4c-3.6-.4-8 .7-11-2.2-2.3-3.7 1-7.7 2.3-11zM89.2 23.4c-2.5-1-.5-4.7 1.6-4 2 .2 2.8 2.8 1.4 4l-3 1L91 27c-1.4 2-5 2.3-5.3-.5-.5-2.2 2.3-2.5 3.7-3z"/><path d="M20.3 23c.7-1.8 3-3.7 4.5-1.6 2.3 1.7-.3 3.4-1.7 4.3-1-.8-2-1.8-2.7-2.8z"/><path d="M26.4 21.5c2-2.7 6.2 1.6 3.5 3.5-2.2 2-5-1.3-3.6-3.5zM65.3 24l2.6-1.4 2.5 1.5-1.2 3.6c-2.2 0-4-1.3-4-3.7zM70 26c1-1.2 1.8-3.6 3.7-2.8 2 .6 1.6 2.6 1.8 4-2 .8-4 .4-5.5-1.2z"/><path d="M124.8 25.2c.6-2.3 3-1.2 4.5-1-.4 6.7 1 13.7-1 20.3-3.7 1-7.6.4-11.3.2l-55-3c-.6 2.6-2 4.7-3.7 6.5 2.7.4 6.3-1 8 1.5.6 9 .2 18 .3 27.2l-5-.5V53.3H59v23.4l-6.3-.3v-4.6c.4-.3 1-.8 1.5-1v-17L52.7 52v-4.2c1.6-1.6 3.8-3 4.3-5.5.5-4-.5-8.4.6-12.5 1-1 2.7-1 4.2-1.3l.4 9h6c0-2.4-.2-5 .3-7.4 1-1 3-.5 4.3-.8v8.5l6.4.6c0-2.6-.4-5.3.3-7.8 1.3-.5 2.7-.5 4-.8v8.7c1.6 0 3 .2 4.5.3 0-2.3-.2-4.6.2-6.8.3-2 2.7-1.4 4-1.8.2 2.8.2 5.7.2 8.6l4.3.4v-6.6c.4-.5 1-1.4 1.2-2h3.5v8.8h4.3c0-2.7-.3-5.5.8-8 4.3-.2 8.6 0 12.8.5V40l5.2.5c0-5-.4-10.4.2-15.5z"/><path d="M90.3 24.6c2.5-1 6.7 0 5 3.6-3 2-4.8-1-5-3.6zM131.7 45.6c.5-7-1-14.4.8-21.3h4c-.2 6.6.2 13.2-.2 19.8-.8 2-3 1.5-4.6 1.6zM182.8 26.3c2.5 0 6-1.2 7 2l-3.3.4c1.4 1.3 2.5 3 2.5 5h-6.3v-2.4h2.7c-1.5-1.3-2.5-3-2.6-5zM148.5 29.2c0-2.2 2.5-2 4-2 .3 1.5.4 3 .3 4.7-1.8 0-4.7-.4-4.3-2.8zM154.3 28.2c1.4-2 4.3 0 4.3 1.8 0 1.4-1.7 1.8-2.6 2.7-1.3-1-4-3-1.7-4.5zM192.4 27.5h4c0 5.6 0 11.3-.2 17h4.6c0-2.8 0-5.6.7-8.2 4.4 0 8.7 0 13 .5v8.4c1.8 0 3.5.2 5.2.3.4-5.6-.8-11.3.8-16.8h3.8c0 5.8.2 11.6 0 17.3 0 2.2-1.6 4.5-4 4L192 48.8c0-7-1.4-14.3.4-21.2zM227.4 29.3h4.2V47c0 1.4-.6 2.5-1 3.6h-3.8c.3-7-.7-14.3.6-21.3z"/><path d="M203.2 32.2c-.3-2.5 2.8-2.2 4.4-1.7v4c-1.8.2-4.8.3-4.4-2.3zM209 31c1.5-1.8 3.8 0 4.5 1.8l-1.6 2.4c-2.2 0-5-2-3-4.2zM146.7 34.7l1.2-1.3c4 0 8.2.4 12.3.7v8.6h4.5c0-2.7 0-5.5.7-8.2 4.4 0 8.8 0 13 .5.2 2.7.2 5.5.2 8.3l6 .4v-8l4.5-.4c-.5 4.3 1.5 9.6-2 13-9.7-.4-19.4-.8-29-1.5-3.8-1-2.2-5.7-2.5-8.5-1.2 0-3.4-.4-4.5-.5-.3 3-.3 5.8-.3 8.7-1.6-.2-3.3 0-4.3-1.4-.2-3.4-.2-6.8 0-10.3z"/><path fill="#fff" d="M110.4 35.8h4.3c0 1.4 0 2.8.2 4h-4.6v-4zM169.6 38.8l4.8.6c0 .8-.3 2.2-.4 3-1 1.6-3 .2-4.5.4v-4zM205.6 40.8h4l.6 4h-4.6v-4z"/><path d="M20 46.2c3.6.2 7.2 0 11 .4 1.2 0 3 .8 2.7 2.4.3 8.7 0 17.5 0 26.2h-4.4c-1-8-.3-16-.4-23.8H26v23.3c-2 0-4.2 0-6.4-.2.2-2-.3-4.3 1.5-5.6.2-6 0-11.6 0-17.4-.3-.3-1-1-1.4-1.2v-4.2zM36 47c4.3 0 8.7.3 13 .7.4.5 1 1.4 1.2 2v26.2c-4.7 0-9.3-.4-14-.8 0-1.6-.2-3.2-.4-4.8 3.2 0 6.3.3 9.5.5V52.3l-2.7-.3v8.2h-5v-8l-1.7-1c-.2-1.3-.2-2.7 0-4zM69 48.5l6.3 1c.2 9.3 0 18.5 0 27.8-1.5 0-3 0-4.7-.2V56c.3-1.3-.4-2.3-1.4-3v-4.5zM77.8 53.5V49l5.7.5c1.5 7.7.3 15.6.7 23.3h2.6v-18c-.4-.2-1.2-.3-1.6-.3 0-1.8.2-3.5.3-5.2 2 .4 5.3-.4 6 2.2.5 7.3 0 14.6.3 22l2.5-.2v-18l-1.7-1c0-1.6 0-3 .2-4.6 2 .6 5.3-.4 6.4 2.2.3 8.7 0 17.6 0 26.4-6.6.2-13.2-.7-20-.8V54.3l-1.4-.8zM101.7 50.2c2.8 0 6 0 7.2 3 .3-1 .8-1.8 1.3-2.6 2 .4 5.2 0 5.4 2.5.3 9 0 17.8 0 26.6l-6.5-.5v-4.7h1.6c.5-4.2.4-8.3.4-12.3v-6.4c-1.3 1.6-3.3 3-3 5.3v18c-1.6 0-3.3 0-5-.2V56c-1.8-1.5-1.3-3.8-1.5-5.8zM118.8 51.4c4 .4 9-1 12.3 1.6.8 9 .2 18.2.4 27.3h-5v-24h-7.2c0-1.6-.3-3.3-.4-5zM140.2 52.4c3.6.3 7.2.3 10.7.3.7 1 1.8 2 1.7 3.3v25.5l-5-.3V57.8c-2.4 0-5-.2-7.5-.4v-5zM155 53.2c3-.2 6-.2 7 2.8.7-1 1.3-1.7 1.8-2.6 2 .4 4.8 0 5.3 2.4.4 8.8 0 17.6.2 26.4h-6.7v-5h1.8V58.5l-2.7 3V82c-1.7 0-3.3-.2-5-.3V58.8c-2-1.2-1.2-3.7-1.5-5.6zM171.7 54c2 0 4 .4 6 .7.6 4.2.4 8.4.4 12.7l-4.8-.4c-.3-3 1-6.6-1.4-9v-4zM180 54.5c2 0 3.7 0 5.5.2.6 1.3 1.3 2.7 1.2 4.2v19.4h2.6c0-6 .3-12 0-18l-1.7-1.3v-4.3c2 0 3.8.4 5.7.6.5 1.5 1 3 1 4.7v18.5c.6 0 2 0 2.6.2V61c-2.5-1-1.6-3.8-1.8-6 2.3.3 6.4-.2 6.5 3 .2 8.7 0 17.3 0 26-6.6-.6-13.3-.4-20-1.2V60c-2.3-.8-1.4-3.5-1.6-5.5zM203.4 55.8c4 0 8-.3 12 1 .5 1.3.4 2.8.4 4.2v23.8c-1.7 0-3.3-.2-5-.3V60.8c-2.4 0-5 0-7.4-.2v-4.8zM219 56.4c3.8 0 7.6.4 11.4.8.6 1.2 1.3 2.4 1.2 3.8v24.3h-5V61.8l-7.7-.5v-5z"/><path d="M119 61.4h5c-.2 6-.2 12.3 0 18.4-1.8 0-3.5 0-5.2-.2.5-6 0-12 0-18.2zM140.3 62.3c1.5.4 4-.4 4.8 1 .3 6 0 11.8.2 17.6-1.6 0-3.3 0-5-.2V62.3zM219 66.4c1.6 0 3.3 0 5 .2v18.7l-5-.6V66.4z"/></svg>