<?xml version="1.0" encoding="UTF-8" ?>
<!DOCTYPE svg PUBLIC "-//W3C//DTD SVG 1.1//EN" "http://www.w3.org/Graphics/SVG/1.1/DTD/svg11.dtd">
<svg width="249pt" height="104pt" viewBox="0 0 249 104" version="1.1" xmlns="http://www.w3.org/2000/svg">
<path fill="#ffffff" d=" M 0.00 0.00 L 249.00 0.00 L 249.00 104.00 L 0.00 104.00 L 0.00 77.44 L 0.61 90.24 C 83.16 94.59 165.72 98.84 248.28 103.26 C 248.36 73.64 248.25 44.03 248.33 14.41 C 214.67 12.22 180.94 10.91 147.26 8.95 C 98.17 6.44 49.09 3.73 0.00 1.33 L 0.00 0.00 Z" />
<path fill="#000000" d=" M 0.00 1.33 C 49.09 3.73 98.17 6.44 147.26 8.95 C 180.94 10.91 214.67 12.22 248.33 14.41 C 248.25 44.03 248.36 73.64 248.28 103.26 C 165.72 98.84 83.16 94.59 0.61 90.24 L 0.00 77.44 L 0.00 1.33 Z" />
<path fill="#ffffff" d=" M 4.54 5.72 C 84.41 10.08 164.29 14.01 244.16 18.38 C 244.16 45.15 244.15 71.91 244.16 98.67 C 164.29 94.60 84.42 90.30 4.55 86.18 C 4.51 59.36 4.54 32.54 4.54 5.72 Z" />
<path fill="#000000" d=" M 39.80 19.26 C 41.52 19.31 43.24 19.36 44.96 19.44 C 43.85 21.97 42.65 24.48 42.00 27.19 C 45.32 28.03 48.77 28.06 52.14 28.59 C 52.41 29.09 52.97 30.07 53.24 30.57 C 53.23 33.40 53.23 36.23 53.24 39.06 C 52.84 39.77 52.45 40.49 52.07 41.21 C 47.37 41.40 42.71 40.53 38.01 40.63 C 34.88 40.37 31.51 40.81 28.62 39.38 C 27.26 36.93 27.93 34.05 27.73 31.38 C 26.20 31.30 24.66 31.25 23.13 31.20 C 23.12 34.12 23.13 37.04 23.12 39.97 C 21.59 39.59 19.53 39.93 18.82 38.14 C 18.62 34.72 18.61 31.29 18.83 27.88 C 19.12 27.62 19.68 27.09 19.96 26.83 C 24.14 26.66 28.32 27.02 32.49 27.32 C 32.45 30.09 32.45 32.85 32.43 35.62 C 37.81 36.23 43.22 36.30 48.63 36.49 C 48.62 35.20 48.61 33.91 48.60 32.62 C 44.88 32.20 40.43 33.30 37.47 30.44 C 35.25 26.73 38.49 22.73 39.80 19.26 Z" />
<path fill="#000000" d=" M 89.17 23.38 C 86.74 22.44 88.73 18.66 90.82 19.46 C 92.65 19.55 93.63 22.23 92.16 23.42 C 91.23 23.79 90.28 24.13 89.32 24.43 C 89.83 25.31 90.33 26.20 90.84 27.08 C 89.43 28.94 85.88 29.25 85.46 26.48 C 85.04 24.29 87.75 24.00 89.17 23.38 Z" />
<path fill="#000000" d=" M 20.28 22.94 C 21.02 21.21 23.32 19.30 24.83 21.38 C 27.15 23.07 24.47 24.75 23.07 25.74 C 22.06 24.87 21.14 23.94 20.28 22.94 Z" />
<path fill="#000000" d=" M 26.38 21.49 C 28.36 18.78 32.63 23.07 29.89 24.96 C 27.84 27.15 25.00 23.71 26.38 21.49 Z" />
<path fill="#000000" d=" M 65.29 23.95 C 65.93 23.60 67.22 22.90 67.86 22.55 C 68.51 22.94 69.81 23.74 70.46 24.14 C 70.09 25.30 69.72 26.47 69.35 27.64 C 67.08 27.72 65.19 26.33 65.29 23.95 Z" />
<path fill="#000000" d=" M 70.04 26.04 C 70.89 24.80 71.75 22.36 73.73 23.20 C 75.57 23.77 75.29 25.75 75.50 27.25 C 73.47 27.95 71.56 27.65 70.04 26.04 Z" />
<path fill="#000000" d=" M 124.80 25.21 C 125.36 22.88 127.66 24.00 129.34 24.13 C 128.89 30.90 130.21 37.87 128.35 44.50 C 124.62 45.55 120.75 44.91 116.97 44.67 C 98.66 43.82 80.37 42.83 62.07 41.85 C 61.39 44.27 60.07 46.42 58.31 48.20 C 60.95 48.58 64.56 47.23 66.42 49.75 C 66.86 58.78 66.46 67.85 66.61 76.89 C 64.96 76.78 63.31 76.68 61.67 76.55 C 61.69 68.77 61.68 60.98 61.68 53.20 C 61.02 53.20 59.71 53.19 59.05 53.18 C 59.07 60.99 59.05 68.79 59.06 76.59 C 56.95 76.49 54.85 76.39 52.74 76.27 C 52.73 74.75 52.71 73.22 52.68 71.70 C 53.07 71.44 53.83 70.92 54.21 70.66 C 54.08 65.04 54.32 59.41 54.11 53.79 C 53.79 53.30 53.13 52.34 52.81 51.86 C 52.76 50.52 52.72 49.18 52.69 47.84 C 54.39 46.24 56.63 44.80 57.05 42.32 C 57.50 38.18 56.54 33.89 57.61 29.82 C 58.73 28.77 60.34 28.77 61.76 28.47 C 62.03 31.45 62.13 34.44 62.19 37.43 C 64.20 37.53 66.20 37.58 68.21 37.59 C 68.26 35.11 67.99 32.58 68.53 30.14 C 69.64 29.01 71.41 29.51 72.82 29.20 C 72.87 32.05 72.85 34.89 72.84 37.74 C 74.95 37.94 77.05 38.16 79.16 38.28 C 79.31 35.70 78.77 32.99 79.54 30.50 C 80.81 29.96 82.23 30.01 83.57 29.75 C 83.61 32.62 83.60 35.48 83.60 38.35 C 85.06 38.44 86.52 38.56 87.98 38.67 C 87.96 36.41 87.76 34.13 88.15 31.89 C 88.53 29.86 90.87 30.55 92.33 30.17 C 92.36 33.05 92.36 35.93 92.39 38.81 C 93.84 38.95 95.29 39.10 96.75 39.24 C 96.79 37.03 96.79 34.81 96.79 32.59 C 97.07 32.12 97.64 31.20 97.92 30.73 C 98.82 30.73 100.61 30.74 101.51 30.74 C 101.51 33.61 101.51 36.48 101.52 39.35 C 102.57 39.38 104.69 39.43 105.75 39.46 C 105.71 36.71 105.45 33.85 106.56 31.25 C 110.85 31.22 115.15 31.46 119.42 31.90 C 119.42 34.67 119.42 37.44 119.43 40.21 C 121.14 40.37 122.86 40.53 124.57 40.72 C 124.70 35.56 124.22 30.34 124.80 25.21 Z" />
<path fill="#000000" d=" M 90.29 24.55 C 92.84 23.66 96.98 24.73 95.24 28.16 C 92.25 30.31 90.54 27.27 90.29 24.55 Z" />
<path fill="#000000" d=" M 131.69 45.65 C 132.15 38.58 130.69 31.24 132.54 24.35 C 133.51 24.35 135.46 24.33 136.43 24.33 C 136.30 30.91 136.65 37.50 136.27 44.07 C 135.53 46.08 133.35 45.51 131.69 45.65 Z" />
<path fill="#000000" d=" M 182.85 26.31 C 185.30 26.42 188.89 25.06 189.66 28.41 C 188.88 28.48 187.33 28.60 186.55 28.66 C 187.92 30.02 188.96 31.62 189.00 33.61 C 186.92 33.76 184.84 33.77 182.75 33.74 C 182.72 33.12 182.66 31.88 182.63 31.26 C 183.32 31.29 184.68 31.35 185.36 31.39 C 183.91 30.00 182.88 28.36 182.85 26.31 Z" />
<path fill="#000000" d=" M 148.51 29.22 C 148.48 27.00 150.99 27.34 152.51 27.14 C 152.77 28.70 152.89 30.28 152.77 31.87 C 151.03 32.02 148.15 31.60 148.51 29.22 Z" />
<path fill="#000000" d=" M 154.29 28.21 C 155.68 26.28 158.64 28.07 158.60 30.00 C 158.57 31.43 156.87 31.83 156.04 32.69 C 154.67 31.83 152.03 29.68 154.29 28.21 Z" />
<path fill="#000000" d=" M 192.36 27.49 C 193.67 27.46 194.98 27.43 196.29 27.42 C 196.26 33.08 196.30 38.75 196.25 44.41 C 197.39 44.41 199.65 44.41 200.79 44.41 C 200.72 41.69 200.72 38.94 201.52 36.32 C 205.88 36.19 210.23 36.44 214.58 36.79 C 214.59 39.61 214.59 42.42 214.59 45.24 C 216.30 45.33 218.00 45.42 219.72 45.50 C 220.05 39.93 218.92 34.17 220.48 28.73 C 221.45 28.75 223.37 28.78 224.34 28.79 C 224.29 34.54 224.47 40.28 224.28 46.02 C 224.32 48.19 222.69 50.55 220.29 50.14 C 210.85 49.52 201.39 49.19 191.93 48.68 C 191.86 41.65 190.61 34.37 192.36 27.49 Z" />
<path fill="#000000" d=" M 227.45 29.32 C 228.83 29.29 230.21 29.29 231.59 29.31 C 231.56 35.22 231.63 41.13 231.58 47.05 C 231.68 48.35 230.99 49.47 230.47 50.59 C 229.22 50.57 228.00 50.54 226.77 50.51 C 227.13 43.46 226.06 36.28 227.45 29.32 Z" />
<path fill="#000000" d=" M 203.22 32.19 C 202.94 29.67 206.02 30.01 207.61 30.52 C 207.60 31.52 207.60 33.50 207.59 34.49 C 205.83 34.74 202.85 34.80 203.22 32.19 Z" />
<path fill="#000000" d=" M 208.90 31.01 C 210.54 29.17 212.76 31.11 213.54 32.77 C 213.00 33.59 212.47 34.40 211.94 35.22 C 209.79 35.26 206.97 33.22 208.90 31.01 Z" />
<path fill="#000000" d=" M 146.68 34.70 C 146.97 34.38 147.56 33.72 147.86 33.40 C 152.01 33.31 156.16 33.81 160.29 34.14 C 160.27 36.95 160.27 39.77 160.25 42.58 C 161.38 42.59 163.63 42.61 164.76 42.61 C 164.75 39.87 164.88 37.12 165.47 34.43 C 169.87 34.27 174.27 34.50 178.64 34.93 C 178.68 37.73 178.68 40.52 178.67 43.31 C 180.65 43.45 182.64 43.58 184.62 43.74 C 184.59 41.06 184.60 38.37 184.76 35.68 C 186.24 35.52 187.74 35.40 189.23 35.31 C 188.74 39.61 190.74 44.89 187.23 48.27 C 177.50 47.93 167.76 47.55 158.05 46.77 C 154.35 45.79 155.96 41.06 155.67 38.31 C 154.54 38.18 152.29 37.92 151.17 37.79 C 150.91 40.68 150.91 43.59 150.88 46.50 C 149.41 46.27 147.66 46.50 146.70 45.10 C 146.47 41.64 146.49 38.16 146.68 34.70 Z" />
<path fill="#ffffff" d=" M 110.36 35.77 C 111.80 35.82 113.25 35.86 114.69 35.90 C 114.78 37.22 114.85 38.55 114.92 39.88 C 113.41 39.84 111.90 39.80 110.39 39.74 C 110.37 38.42 110.36 37.10 110.36 35.77 Z" />
<path fill="#ffffff" d=" M 169.59 38.77 C 171.18 38.99 172.78 39.20 174.38 39.40 C 174.28 40.15 174.09 41.64 174.00 42.38 C 173.08 44.03 170.93 42.59 169.46 42.75 C 169.50 41.75 169.56 39.76 169.59 38.77 Z" />
<path fill="#ffffff" d=" M 205.61 40.76 C 206.97 40.80 208.34 40.85 209.71 40.88 C 209.88 42.19 210.04 43.50 210.20 44.81 C 208.66 44.79 207.12 44.76 205.57 44.72 C 205.58 43.40 205.59 42.08 205.61 40.76 Z" />
<path fill="#000000" d=" M 19.94 46.17 C 23.58 46.36 27.23 46.24 30.86 46.57 C 32.18 46.71 33.91 47.40 33.74 49.01 C 33.95 57.74 33.73 66.49 33.84 75.23 C 32.32 75.20 30.81 75.17 29.29 75.15 C 28.40 67.26 29.02 59.30 28.87 51.37 C 28.22 51.37 26.90 51.36 26.24 51.35 C 26.28 59.13 26.25 66.91 26.26 74.69 C 24.11 74.66 21.96 74.63 19.81 74.52 C 20.04 72.58 19.47 70.20 21.32 68.88 C 21.47 63.12 21.29 57.37 21.42 51.61 C 21.04 51.31 20.27 50.71 19.89 50.41 C 19.91 49.00 19.93 47.58 19.94 46.17 Z" />
<path fill="#000000" d=" M 35.95 47.13 C 40.34 46.95 44.71 47.33 49.08 47.73 C 49.36 48.19 49.93 49.11 50.22 49.56 C 50.17 58.34 50.21 67.12 50.20 75.91 C 45.55 75.92 40.92 75.61 36.30 75.21 C 36.11 73.62 35.98 72.02 35.77 70.43 C 38.95 70.38 42.13 70.69 45.30 70.94 C 45.34 64.77 45.30 58.60 45.33 52.43 C 44.65 52.35 43.30 52.21 42.62 52.14 C 42.66 54.82 42.66 57.51 42.67 60.20 C 41.02 60.18 39.38 60.16 37.74 60.13 C 37.72 57.50 37.73 54.86 37.74 52.23 C 37.28 52.01 36.37 51.56 35.91 51.34 C 35.79 49.93 35.76 48.52 35.95 47.13 Z" />
<path fill="#000000" d=" M 69.07 48.47 C 71.15 48.78 73.24 49.06 75.29 49.52 C 75.45 58.77 75.30 68.01 75.38 77.26 C 73.79 77.20 72.21 77.15 70.62 77.11 C 70.62 70.08 70.64 63.04 70.63 56.00 C 70.88 54.70 70.23 53.68 69.15 53.00 C 69.12 51.49 69.10 49.98 69.07 48.47 Z" />
<path fill="#000000" d=" M 77.85 53.54 C 77.87 52.04 77.89 50.55 77.90 49.05 C 79.78 49.19 81.66 49.33 83.53 49.54 C 84.97 57.19 83.85 65.06 84.19 72.80 C 84.84 72.81 86.15 72.83 86.81 72.84 C 86.82 66.77 86.77 60.71 86.85 54.65 C 86.44 54.60 85.63 54.51 85.22 54.47 C 85.33 52.74 85.43 51.01 85.53 49.28 C 87.54 49.67 90.81 48.94 91.56 51.47 C 92.01 58.75 91.64 66.06 91.75 73.36 C 92.38 73.36 93.65 73.35 94.28 73.35 C 94.26 67.31 94.25 61.27 94.29 55.23 C 93.87 54.99 93.05 54.50 92.63 54.25 C 92.67 52.72 92.72 51.19 92.77 49.66 C 94.89 50.34 98.11 49.34 99.19 51.90 C 99.47 60.72 99.20 69.56 99.31 78.39 C 92.62 78.60 85.99 77.70 79.31 77.61 C 79.35 69.84 79.28 62.08 79.35 54.31 C 78.98 54.12 78.23 53.73 77.85 53.54 Z" />
<path fill="#000000" d=" M 101.74 50.20 C 104.48 50.34 107.67 50.28 108.91 53.27 C 109.32 52.34 109.80 51.44 110.34 50.57 C 112.15 50.98 115.50 50.50 115.71 53.11 C 115.98 61.93 115.78 70.76 115.79 79.59 C 113.60 79.44 111.41 79.26 109.23 79.07 C 109.21 77.47 109.18 75.89 109.16 74.30 C 109.57 74.26 110.40 74.19 110.81 74.15 C 111.30 70.12 111.16 66.05 111.16 62.01 C 111.17 59.88 111.15 57.75 111.13 55.62 C 109.94 57.24 107.87 58.63 108.15 60.90 C 108.07 66.94 108.18 72.98 108.25 79.02 C 106.58 78.95 104.92 78.87 103.26 78.79 C 103.24 71.18 103.34 63.57 103.21 55.97 C 101.40 54.54 101.88 52.20 101.74 50.20 Z" />
<path fill="#000000" d=" M 118.76 51.39 C 122.78 51.81 127.72 50.29 131.09 52.97 C 131.82 62.03 131.17 71.20 131.41 80.30 C 129.74 80.25 128.06 80.21 126.39 80.17 C 126.34 72.24 126.37 64.32 126.38 56.40 C 124.00 56.38 121.62 56.34 119.25 56.30 C 119.07 54.66 118.92 53.02 118.76 51.39 Z" />
<path fill="#000000" d=" M 140.24 52.35 C 143.79 52.70 147.36 52.70 150.93 52.73 C 151.68 53.70 152.80 54.65 152.66 56.02 C 152.72 64.51 152.66 73.00 152.67 81.49 C 151.05 81.41 149.42 81.33 147.80 81.25 C 147.82 73.41 147.76 65.57 147.83 57.73 C 145.30 57.61 142.76 57.47 140.22 57.33 C 140.23 55.67 140.24 54.01 140.24 52.35 Z" />
<path fill="#000000" d=" M 155.12 53.20 C 157.90 53.01 160.90 53.05 162.11 56.01 C 162.69 55.14 163.26 54.26 163.84 53.39 C 165.69 53.83 168.58 53.34 169.11 55.75 C 169.36 64.56 169.13 73.38 169.21 82.20 C 166.99 82.18 164.76 82.14 162.54 82.11 C 162.49 80.50 162.46 78.88 162.42 77.27 C 162.90 77.23 163.85 77.14 164.32 77.09 C 164.33 70.94 164.33 64.80 164.33 58.65 C 163.44 59.67 162.54 60.70 161.65 61.72 C 161.69 68.43 161.68 75.14 161.61 81.85 C 159.94 81.74 158.28 81.63 156.62 81.52 C 156.65 73.96 156.64 66.39 156.63 58.83 C 154.53 57.64 155.39 55.10 155.12 53.20 Z" />
<path fill="#000000" d=" M 171.72 53.96 C 173.68 54.13 175.63 54.35 177.58 54.68 C 178.27 58.87 178.05 63.14 178.07 67.37 C 176.44 67.23 174.82 67.12 173.20 67.03 C 172.86 64.07 174.26 60.41 171.78 58.11 C 171.75 56.73 171.73 55.34 171.72 53.96 Z" />
<path fill="#000000" d=" M 180.07 54.55 C 181.88 54.57 183.70 54.60 185.52 54.67 C 186.09 56.00 186.76 57.36 186.66 58.86 C 186.74 65.37 186.65 71.89 186.69 78.40 C 187.35 78.38 188.67 78.33 189.33 78.31 C 189.23 72.32 189.59 66.30 189.17 60.32 C 188.77 60.03 187.98 59.43 187.59 59.13 C 187.59 58.02 187.60 55.81 187.61 54.70 C 189.52 54.85 191.42 55.12 193.33 55.31 C 193.83 56.83 194.45 58.35 194.30 59.99 C 194.26 66.17 194.27 72.36 194.26 78.54 C 194.92 78.57 196.24 78.64 196.90 78.67 C 196.89 72.74 196.90 66.80 196.89 60.87 C 194.51 59.88 195.41 57.16 195.15 55.15 C 197.48 55.34 201.59 54.76 201.70 58.14 C 201.89 66.73 201.71 75.33 201.77 83.92 C 195.12 83.36 188.42 83.63 181.79 82.77 C 181.81 75.20 181.81 67.63 181.80 60.07 C 179.45 59.18 180.32 56.50 180.07 54.55 Z" />
<path fill="#000000" d=" M 203.36 55.76 C 207.35 55.84 211.47 55.52 215.32 56.78 C 215.87 58.13 215.80 59.60 215.83 61.03 C 215.79 68.94 215.82 76.85 215.80 84.77 C 214.14 84.68 212.49 84.56 210.84 84.45 C 210.86 76.58 210.83 68.71 210.85 60.84 C 208.36 60.81 205.86 60.75 203.37 60.62 C 203.36 59.00 203.36 57.38 203.36 55.76 Z" />
<path fill="#000000" d=" M 218.92 56.39 C 222.75 56.52 226.57 56.79 230.38 57.20 C 230.97 58.40 231.67 59.62 231.58 61.01 C 231.63 69.11 231.55 77.21 231.61 85.31 C 229.92 85.31 228.23 85.31 226.55 85.31 C 226.57 77.46 226.57 69.61 226.56 61.76 C 224.01 61.59 221.47 61.40 218.92 61.32 C 218.92 59.67 218.92 58.03 218.92 56.39 Z" />
<path fill="#000000" d=" M 118.89 61.44 C 120.55 61.42 122.22 61.41 123.89 61.40 C 123.84 67.54 123.85 73.68 123.88 79.82 C 122.19 79.72 120.50 79.66 118.82 79.57 C 119.33 73.53 118.79 67.49 118.89 61.44 Z" />
<path fill="#000000" d=" M 140.28 62.25 C 141.80 62.72 144.17 61.89 145.13 63.44 C 145.31 69.25 145.12 75.05 145.20 80.86 C 143.56 80.86 141.91 80.86 140.27 80.83 C 140.22 74.64 140.21 68.44 140.28 62.25 Z" />
<path fill="#000000" d=" M 218.92 66.39 C 220.63 66.45 222.34 66.55 224.06 66.63 C 224.04 72.85 223.91 79.07 223.91 85.29 C 222.24 85.12 220.59 84.85 218.92 84.70 C 218.92 78.59 218.92 72.49 218.92 66.39 Z" />
</svg>
