<?xml version="1.0" encoding="UTF-8" standalone="no"?>
<svg width="307px" height="71px" viewBox="0 0 307 71" version="1.1" xmlns="http://www.w3.org/2000/svg" xmlns:xlink="http://www.w3.org/1999/xlink" xmlns:sketch="http://www.bohemiancoding.com/sketch/ns">
    <!-- Generator: Sketch 3.3.1 (12005) - http://www.bohemiancoding.com/sketch -->
    <title>Kulno</title>
    <desc>Created with Sketch.</desc>
    <defs></defs>
    <g id="Page-1" stroke="none" stroke-width="1" fill="none" fill-rule="evenodd" sketch:type="MSPage">
        <g id="Desktop-HD" sketch:type="MSArtboardGroup" transform="translate(-487.000000, -284.000000)">
            <g id="Kulno" sketch:type="MSLayerGroup" transform="translate(487.000000, 284.000000)">
                <g id="text3004" transform="translate(167.253051, 0.415612)" fill="#01091E" sketch:type="MSShapeGroup">
                    <path d="M120.37751,44.2312681 C121.442578,44.2312798 122.216621,44.0621618 122.699643,43.72392 C123.182629,43.3857074 123.510825,42.7938061 123.684227,41.948216 C123.857592,41.1026611 123.931903,39.949056 123.907153,38.4874067 C123.882336,37.0257924 123.869988,35.1836538 123.869988,32.9609793 C123.869964,31.825522 123.845172,30.7745945 123.795678,29.8081967 C123.746105,28.8418574 123.603694,28.0144034 123.368408,27.3258349 C123.133074,26.6373306 122.773923,26.1058244 122.290937,25.731328 C121.807915,25.3568894 121.170104,25.1696558 120.377498,25.1696248 L104.772755,25.1696248 L104.772755,12.8484113 L120.674728,12.8484113 C124.489199,12.8484552 127.622533,13.283321 130.074729,14.1530106 C132.526878,15.0227844 134.465079,16.2971832 135.889353,17.9762105 C137.313561,19.6553144 138.291953,21.7209272 138.824529,24.1730558 C139.35704,26.6252457 139.62331,29.4096006 139.623346,32.5261111 L139.623346,36.9472554 C139.62331,40.1121287 139.35704,42.9085626 138.824529,45.3365513 C138.291953,47.7645633 137.313561,49.7939384 135.889353,51.4246824 C134.465079,53.0554322 132.520685,54.2935905 130.056153,55.1391629 C127.591573,55.9847354 124.464431,56.4075246 120.674728,56.4075246 L104.772755,56.4075246 L104.772755,44.1587882 L120.37751,44.2312681 Z" id="path3154"></path>
                    <path d="M101.75969,12.7759337 L101.75969,16.0374316 L101.685385,44.4486964 C101.685367,45.0526884 101.573904,45.8257868 101.350997,46.7679856 C101.128053,47.7102077 100.81224,48.7248924 100.403565,49.8120511 C99.9948535,50.8992216 99.5118495,52.0105442 98.9545529,53.1460249 C98.3972264,54.2815114 97.7841833,55.32036 97.1154238,56.2625705 L86.1549477,56.2625705 L86.1549477,12.7759337 L101.75969,12.7759337 Z" id="path3156"></path>
                    <path d="M52.8494688,49.3409459 C53.4191614,48.9060835 54.094125,48.4047807 54.8743714,47.8370316 C55.6545998,47.2693 56.3295634,46.7921553 56.899274,46.4055973 C58.3606581,45.3667605 59.7539355,44.3399969 61.0791124,43.3252947 C62.4042593,42.3106218 63.5622328,41.2717733 64.553027,40.208755 C65.5437851,39.1457601 66.3178275,37.9921609 66.8751601,36.7479398 C67.4324507,35.5037596 67.711105,34.1448053 67.7111289,32.6710711 L67.7111289,28.576078 C67.711105,27.0540744 67.5686818,26.1058244 67.2838594,25.731328 C66.9989831,25.3568894 66.2249407,25.1696558 64.9617203,25.1696248 L44.7127119,25.1696248 L44.7127119,10.6740798 L46.4589542,0.382243167 L60.4660694,0.382243167 L60.4660694,12.8484113 L66.7079687,12.8484113 C69.655505,12.8484552 72.2067559,13.2168829 74.3617216,13.9536968 C76.5166334,14.6905955 78.293836,15.7294417 79.6933415,17.0702388 C81.092781,18.4111149 82.1207094,19.9693842 82.7771388,21.7450519 C83.4334902,23.5207892 83.7369127,25.4233275 83.6874123,27.4526705 C83.6873763,27.935884 83.6750042,28.4311472 83.650248,28.9384662 C83.6254318,29.4458377 83.6130837,29.941101 83.6130837,30.4242619 C83.5139629,33.6857791 82.8637676,36.7177598 81.6624857,39.5202157 C80.4611378,42.3227008 78.8387365,44.8714972 76.7952937,47.1666108 C74.7517849,49.4617478 72.3677313,51.5032019 69.6431208,53.290979 C66.9184625,55.0787678 64.0204386,56.5887157 60.9490494,57.8208403 L55.9703944,57.8208403 L52.8494688,49.3409459 Z" id="path3158"></path>
                    <path d="M28.6268298,43.8688799 L28.6268298,26.4379858 C28.6268178,25.6890789 28.7258966,25.2662926 28.9240602,25.1696248 L19.9327583,25.1696248 L19.9327583,12.7759337 L30.0758417,12.7759337 C32.8252323,12.7759775 35.1102071,12.9209328 36.9307781,13.2108001 C38.7513131,13.5007539 40.1941329,14.0684954 41.2592377,14.9140264 C42.3243004,15.7596404 43.0859587,16.9374023 43.5442184,18.4473158 C44.0024242,19.9573046 44.2315421,21.920241 44.2315721,24.3361308 L44.2315721,45.2097157 C44.2315421,45.9103458 44.0767348,46.7257148 43.7671443,47.6558404 C43.4574998,48.5859778 43.0611905,49.5583858 42.5782105,50.5730646 C42.0951826,51.5877609 41.5626422,52.6024455 40.9805834,53.6171302 C40.3984766,54.6318206 39.8473601,55.5619521 39.3272218,56.4075246 L17.7406643,56.4075246 L17.7406643,43.8688799 L28.6268298,43.8688799 Z" id="path3160"></path>
                    <path d="M15.9137934,12.7759337 L15.9137934,16.0374316 L15.8394828,44.4486964 C15.8394648,45.0526884 15.7280019,45.8257868 15.5051,46.7679856 C15.2821562,47.7102077 14.9663436,48.7248924 14.5576682,49.8120511 C14.1489509,50.8992216 13.6659529,52.0105442 13.1086563,53.1460249 C12.5513298,54.2815114 11.9382867,55.32036 11.2695272,56.2625705 L0.30905109,56.2625705 L0.30905109,12.7759337 L15.9137934,12.7759337 Z" id="path3162"></path>
                </g>
                <g id="text3010" transform="translate(0.318536, 0.415612)" fill="#48B1E8" sketch:type="MSShapeGroup">
                    <path d="M159.559891,44.2312681 C160.622451,44.2312798 161.394671,44.0621618 161.876555,43.72392 C162.358403,43.3857074 162.685821,42.7938061 162.85882,41.948216 C163.031777,41.1026611 163.105913,39.949056 163.081221,38.4874067 C163.056463,37.0257924 163.044144,35.1836538 163.044144,32.9609793 C163.04412,31.825522 163.019386,30.7745945 162.970008,29.8081967 C162.920553,28.8418574 162.778477,28.0144034 162.543745,27.3258349 C162.308966,26.6373306 161.950655,26.1058244 161.468812,25.731328 C160.986928,25.3568894 160.350613,25.1696558 159.559879,25.1696248 L143.991891,25.1696248 L143.991891,12.8484113 L159.85641,12.8484113 C163.661897,12.8484552 166.78785,13.283321 169.234271,14.1530106 C171.680637,15.0227844 173.61428,16.2971832 175.035199,17.9762105 C176.456053,19.6553144 177.43214,21.7209272 177.963462,24.1730558 C178.494718,26.6252457 178.760361,29.4096006 178.760397,32.5261111 L178.760397,36.9472554 C178.760361,40.1121287 178.494718,42.9085626 177.963462,45.3365513 C177.43214,47.7645633 176.456053,49.7939384 175.035199,51.4246824 C173.61428,53.0554322 171.67446,54.2935905 169.215738,55.1391629 C166.756957,55.9847354 163.637187,56.4075246 159.85641,56.4075246 L143.991891,56.4075246 L143.991891,44.1587882 L159.559891,44.2312681 Z" id="path3165"></path>
                    <path d="M126.814724,33.3233675 C126.814694,31.0041076 126.703494,29.065331 126.481129,27.5070319 C126.258698,25.9487913 125.566786,25.1696558 124.405392,25.1696248 L119.772065,25.1696248 C119.055419,25.1696558 118.505601,25.3810486 118.122598,25.8038021 C117.739559,26.2266205 117.461555,26.7339628 117.288598,27.3258349 C117.115605,27.9177654 117.016759,28.5459038 116.992067,29.2102559 C116.96731,29.8746605 116.954991,30.4605223 116.954991,30.9678413 L116.806719,44.4486964 C116.806701,45.0526884 116.664614,45.8378658 116.380456,46.8042226 C116.096257,47.7706028 115.744123,48.8094514 115.324056,49.9207682 C114.903952,51.0320967 114.415908,52.1313403 113.859924,53.2185049 C113.30391,54.3056695 112.766441,55.2962019 112.247528,56.1900905 L101.387003,56.1900905 L101.387003,35.5701767 C101.386997,34.9178978 101.479665,34.1085682 101.665001,33.1421763 C101.850331,32.1758312 102.153038,31.1973778 102.573136,30.2068278 C102.993216,29.2163246 103.561573,28.2620351 104.278201,27.3439534 C104.994811,26.425936 105.884408,25.7011585 106.946998,25.1696248 L100.645671,25.1696248 L100.645671,12.8484113 L123.775249,12.8484113 C127.58073,12.8484552 130.712855,13.283321 133.171642,14.1530106 C135.630358,15.0227844 137.55164,16.2851036 138.935506,17.9399717 C140.319283,19.5949164 141.276838,21.6484495 141.808172,24.1005781 C142.33941,26.5527716 142.605053,29.3612787 142.605101,32.5261111 L142.605101,44.3762223 C142.605053,45.0768523 142.469143,45.9103458 142.19737,46.8767026 C141.925502,47.8430828 141.548658,48.8698465 141.066834,49.9570052 C140.584926,51.0441757 140.041285,52.1313403 139.435905,53.2185049 C138.830441,54.3056695 138.218842,55.2962019 137.601107,56.1900905 L126.814712,56.1900905 L126.814712,33.3233675 L126.814724,33.3233675 Z" id="path3167"></path>
                    <path d="M68.4231183,49.3409459 C68.9914632,48.9060835 69.664837,48.4047807 70.4432456,47.8370316 C71.2216364,47.2693 71.8950102,46.7921553 72.463379,46.4055973 C73.921321,45.3667605 75.3113168,44.3399969 76.6333784,43.3252947 C77.9554042,42.3106218 79.1106443,41.2717733 80.0991048,40.208755 C81.0875294,39.1457601 81.8597486,37.9921609 82.4157745,36.7479398 C82.9717465,35.5037596 83.2497505,34.1448053 83.2497744,32.6710711 L83.2497744,28.576078 C83.2497505,27.0540744 83.1076568,26.1058244 82.8235052,25.731328 C82.5393059,25.3568894 81.7670866,25.1696558 80.5068415,25.1696248 L60.3055202,25.1696248 L60.3055202,10.6740798 L62.0476555,0.382243167 L76.0217793,0.382243167 L76.0217793,12.8484113 L82.2489709,12.8484113 C85.1895648,12.8484552 87.7348067,13.2168829 89.8847027,13.9536968 C92.034533,14.6905955 93.8075497,15.7294417 95.2037648,17.0702388 C96.5999023,18.4111149 97.6254096,19.9693842 98.2802929,21.7450519 C98.9350984,23.5207892 99.2378062,25.4233275 99.1884283,27.4526705 C99.1883865,27.935884 99.1760495,28.4311472 99.1513516,28.9384662 C99.1265939,29.4458377 99.1142748,29.941101 99.1142748,30.4242619 C99.0153935,33.6857791 98.3667236,36.7177598 97.1682771,39.5202157 C95.9697528,42.3227008 94.3511787,44.8714972 92.3125489,47.1666108 C90.2738532,49.4617478 87.8954089,51.5032019 85.1772158,53.290979 C82.4589749,55.0787678 79.5677828,56.5887157 76.5036277,57.8208403 L71.5366932,57.8208403 L68.4231183,49.3409459 Z" id="path3169"></path>
                    <path d="M57.1394577,12.7759337 L57.1394577,16.0374316 L57.0653222,44.4486964 C57.0653042,45.0526884 56.9541038,45.8257868 56.731727,46.7679856 C56.5093083,47.7102077 56.1942395,48.7248924 55.7865267,49.8120511 C55.378772,50.8992216 54.8969057,52.0105442 54.3409277,53.1460249 C53.7849078,54.2815114 53.1733087,55.32036 52.5061243,56.2625705 L41.5714697,56.2625705 L41.5714697,12.7759337 L57.1394577,12.7759337 Z" id="path3171"></path>
                    <path d="M37.5466617,58.6180967 C37.5466438,59.2220712 37.4230884,60.0072485 37.1759957,60.9736171 C36.9288672,61.9399856 36.5890885,62.9788283 36.1566599,64.0901626 C35.7242013,65.2014794 35.242335,66.300723 34.7110609,67.3878993 C34.1797569,68.4750523 33.6670032,69.4655788 33.1727998,70.3594849 L22.0898741,70.3594849 L22.0898741,12.8484113 L37.8802628,12.8484113 L37.8802628,16.0374316 L37.5466617,58.6180967 Z" id="path3173"></path>
                    <path d="M16.5036859,27.6701045 C16.5036679,28.2741141 16.3553967,29.0592915 16.0588843,30.0256308 C15.762336,30.9920285 15.3854866,32.0187922 14.9283541,33.1059334 C14.4711796,34.1931214 13.9522485,35.292365 13.3715547,36.4036701 C12.7908249,37.5150162 12.1668709,38.5417798 11.4996865,39.4839728 L1.71409457,39.4839728 L0.268495555,17.8131355 C0.268495555,17.2091938 0.416760741,16.4300589 0.713297092,15.475729 C1.00982746,14.521481 1.38667088,13.4826342 1.84382735,12.359187 C2.30097784,11.2358274 2.83844736,10.1063839 3.45622993,8.97085348 C4.07400054,7.83541722 4.70413207,6.79657104 5.3466245,5.85431144 L16.651951,5.85431144 L16.5036859,27.6701045 Z M0.490896323,43.2890576 L15.6882184,43.2890576 L15.6882184,56.2625705 L0.490896323,56.2625705 L0.490896323,43.2890576 Z" id="path3175"></path>
                </g>
                <path d="M155.33524,34.8375154 C155.33524,37.6134509 153.325003,39.8637916 150.845256,39.8637916 C148.365501,39.8637916 146.355272,37.6134509 146.355272,34.8375154 C146.355272,32.0615799 148.365501,29.8112391 150.845256,29.8112391 C153.325003,29.8112391 155.33524,32.0615799 155.33524,34.8375154 L155.33524,34.8375154 Z" id="path3027" fill="#FFFFFF" sketch:type="MSShapeGroup"></path>
                <path d="M284.886687,34.8375154 C284.886687,37.6134509 282.87645,39.8637916 280.396703,39.8637916 C277.916948,39.8637916 275.906719,37.6134509 275.906719,34.8375154 C275.906719,32.0615799 277.916948,29.8112391 280.396703,29.8112391 C282.87645,29.8112391 284.886687,32.0615799 284.886687,34.8375154 L284.886687,34.8375154 Z" id="path3029" fill="#01091E" sketch:type="MSShapeGroup"></path>
            </g>
        </g>
    </g>
</svg>