<svg viewBox="0 0 307 71" xmlns="http://www.w3.org/2000/svg"><g fill="none" fill-rule="evenodd"><g fill="#01091E"><path d="M287.6 44.6c1 0 2 0 2.4-.5.4-.2.8-.8 1-1.6l.2-3.5v-5.6c0-1.2 0-2.2-.2-3.2 0-1 0-1.8-.4-2.5-.2-.6-.6-1.2-1-1.6-.5-.2-1.2-.4-2-.4H272V13.3h16c3.7 0 7 .4 9.3 1.3 2.5.8 4.4 2 5.8 3.8 1.6 1.7 2.5 3.7 3 6.2.6 2.4 1 5.2 1 8.3v4.4c0 3-.4 6-1 8.4-.5 2.4-1.4 4.4-3 6-1.3 1.7-3.2 3-5.7 3.8-2.5.8-5.6 1.2-9.4 1.2h-16V44.6h15.6zM269 13.2V45l-.4 2.2c-.2 1-.5 2-1 3l-1.4 3.4-1.8 3h-11V13.3H269zM220 49.8l2-1.5 2.2-1.5 4-3c1.5-1 2.6-2 3.6-3.2 1-1 1.8-2.2 2.3-3.4.7-1.3 1-2.6 1-4V29c0-1.5-.2-2.5-.5-3-.2-.2-1-.4-2.3-.4H212V11L213.7 1h14v12.5h6.3c3 0 5.5.3 7.6 1 2.2.8 4 1.8 5.3 3.2 1.3 1.3 2.4 3 3 4.7.7 1.7 1 3.6 1 5.7v2.8c-.2 3.3-1 6.3-2 9-1.3 3-3 5.5-5 7.8s-4.4 4.3-7 6c-2.8 2-5.7 3.4-8.8 4.6h-5l-3-8.4zM196 44.3V27c0-1 0-1.3.2-1.4h-9V13.2h10c3 0 5.2 0 7 .4 1.8.3 3.2 1 4.3 1.7 1 1 1.8 2 2.3 3.6.5 1.4.7 3.3.7 5.8v20.8c0 .7-.2 1.5-.5 2.5l-1.2 3-1.6 3c-.5 1-1 2-1.6 2.8H185V44.3h11zM183.2 13.2V45l-.4 2.2-1 3-1.4 3.4c-.6 1-1.2 2-2 3h-10.8V13.3h15.6z"/></g><g fill="#48B1E8"><path d="M160 44.6c1 0 1.7 0 2.2-.5.5-.2.8-.8 1-1.6.2-1 .2-2 .2-3.5v-5.6-3.2l-.5-2.5c-.4-.6-.7-1.2-1.2-1.6-.5-.2-1-.4-2-.4h-15.5V13.3h16c3.7 0 6.8.4 9.3 1.3 2.4.8 4.3 2 5.8 3.8 1.4 1.7 2.4 3.7 3 6.2.4 2.4.7 5.2.7 8.3v4.4c0 3-.2 6-.7 8.4-.5 2.4-1.5 4.4-3 6-1.4 1.7-3.3 3-5.8 3.8-2.4.8-5.5 1.2-9.3 1.2h-16V44.6H160zM127 33.7c0-2.3 0-4.2-.2-5.8-.2-1.6-1-2.4-2-2.4H120c-.6 0-1.2.2-1.6.6l-.8 1.5c-.2.6-.3 1.3-.3 2v1.7L117 45c0 .5 0 1.3-.3 2.2l-1 3-1.5 3.4-1.6 3h-11V36c0-.7.2-1.5.4-2.4.2-1 .5-2 1-3 .3-1 1-2 1.6-2.8.7-1 1.6-1.7 2.7-2.2H101V13.3h23c4 0 7 .4 9.5 1.3 2.4.8 4.4 2 5.8 3.8 1.3 1.6 2.3 3.7 2.8 6 .7 2.6 1 5.4 1 8.5v11.8c0 .7-.2 1.5-.5 2.5l-1 3c-.6 1.2-1 2.2-1.7 3.3l-2 3h-10.7v-23zM68.7 49.8l2-1.5 2-1.5 4.3-3c1.3-1 2.4-2 3.4-3.2 1-1 1.8-2.2 2.3-3.4.6-1.3 1-2.6 1-4V29c0-1.5-.3-2.5-.6-3 0-.2-1-.4-2.2-.4H60.6V11L62.4 1h14v12.5h6.2c3 0 5.5.3 7.6 1 2.2.8 4 1.8 5.3 3.2 1.4 1.3 2.4 3 3 4.7.8 1.7 1 3.6 1 5.7v2.8c-.2 3.3-.8 6.3-2 9-1.2 3-2.8 5.5-5 7.8-2 2.3-4.3 4.3-7 6-2.7 2-5.6 3.4-8.7 4.6h-5l-3-8.4zM57.5 13.2V45L57 47c-.2 1-.5 2-1 3l-1.3 3.4c-.6 1-1.2 2-2 3H42V13.3h15.5zM38 59c0 .6-.3 1.4-.5 2.4l-1 3L35 68l-1.5 3h-11V13.3H38v3.2L38 59zM16.8 28c0 .7 0 1.5-.4 2.4l-1.2 3c-.4 1.2-1 2.3-1.5 3.4-.6 1-1.2 2.2-2 3H2L.6 18.3c0-.6 0-1.4.4-2.3l1.2-3.2 1.6-3.4c.6-1 1.2-2.2 2-3H17L16.8 28zM.8 43.8H16v13H.8v-13z"/></g><path d="M155.3 34.8c0 2.8-2 5-4.5 5-2.4 0-4.4-2.2-4.4-5 0-2.7 2-5 4.4-5 2.5 0 4.5 2.3 4.5 5z" fill="#FFF"/><path d="M285 34.8c0 2.8-2 5-4.6 5-2.5 0-4.5-2.2-4.5-5 0-2.7 2-5 4.4-5 2.5 0 4.5 2.3 4.5 5z" fill="#01091E"/></g></svg>