<svg viewBox="0 0 207 60" xmlns="http://www.w3.org/2000/svg"><g fill="#1F5AA5" fill-rule="evenodd"><path d="M130.4 15.3c.7-.5 1.8-.8 3-.7 13.2.3 14.8 5 30.2 5 12.3 0 20.2-4.5 25.6-7.7L185 .4C179.4 3.7 174.4 7 165 7.2c-12.4.3-18.4-4.8-31.4-4.8-12 0-17.3 4-19.2 5.8L124 35h22l4 12h-14.5c-.2 0 4.2 12.2 4.2 12.2H150c8 0 13-6.5 13-12 0-1.2 0-2.2-.4-3.2L157 27.3c-1.2-4-5-4.7-6-4.7h-18l-2.6-7.3zM35.3 22.7s4 11.6 4 12.2c0 0-3.7-.2-4.7 0L43 59.2H29.5l-8.3-24.5H4.8l-4-12h34.5zM102.4 46c.3 1 .5 2 .5 3 0 5.7-4.6 10.3-10.3 10.3H73.3S69 47 69 47h20l-4-12H64.5l-4.3-12.4H90c1 0 4.8.7 6 4.7l6.4 18.6"/><path d="M158.5 22.6h31c1 0 4.5.7 5.7 4.7l11 31.8h-13.6c-3.4-10.5-4-12.7-8-24.3h-22s-4.3-12-4-12"/><path d="M184.4 59l-7-19.8h-13.2l6.7 20h13.4zM96.5 22.6h16.3c1 0 4.5.7 5.7 4.7l7 20h-13.6l-4.3-12.6h-7M37.3 22.6h17c1 0 4.6.7 5.8 4.7L71 59H57.5c-3.5-10.5-4-12.7-8-24.3h-8"/></g></svg>