<svg viewBox="0 0 207 60" version="1.1" xmlns="http://www.w3.org/2000/svg" xmlns:xlink="http://www.w3.org/1999/xlink" xmlns:sketch="http://www.bohemiancoding.com/sketch/ns">
    <!-- Generator: Sketch 3.3.1 (12005) - http://www.bohemiancoding.com/sketch -->
    <title>Likud_Logo</title>
    <desc>Created with Sketch.</desc>
    <defs></defs>
    <g id="Page-1" stroke="none" stroke-width="1" fill="none" fill-rule="evenodd" sketch:type="MSPage">
        <g id="Desktop-HD" sketch:type="MSArtboardGroup" transform="translate(-904.000000, -129.000000)" fill="#1F5AA5">
            <g id="Likud" sketch:type="MSLayerGroup" transform="translate(835.000000, 94.000000)">
                <g id="Likud_Logo" transform="translate(68.578125, 33.250000)" sketch:type="MSShapeGroup">
                    <g id="g10" transform="translate(104.442986, 31.496180) scale(1, -1) translate(-104.442986, -31.496180) translate(0.442986, 0.996180)">
                        <g id="g3137" transform="translate(0.092357, 0.068044)">
                            <path d="M130.26707,44.8705168 C131.004294,45.3614085 132.049875,45.6378674 133.347105,45.6059683 C146.466497,45.2940659 148.057908,40.7041397 163.502389,40.7041397 C175.758733,40.7041397 183.657305,45.1168487 189.046481,48.3032145 L184.775546,59.6468895 C179.382825,56.4605237 174.41011,53.2068153 165.097344,52.9604834 C152.722265,52.6361758 146.718145,57.7400321 133.717489,57.7400321 C121.703933,57.7400321 116.435265,53.6959349 114.475242,51.9804721 L123.858895,25.3252284 L145.762945,25.3145953 C147.644992,19.8385829 149.89565,13.1929368 149.89565,13.1929368 L135.36561,13.1929368 C135.177759,13.1929368 139.597557,0.936593065 139.597557,0.936593065 L149.89565,0.929504376 C157.925363,0.929504376 163.004409,7.43692109 163.004409,13.072429 C163.004409,14.1587707 162.836053,15.2061245 162.522378,16.1896801 C162.522378,16.1896801 156.906364,32.736453 156.876237,32.8374668 C155.681793,36.8478927 151.884028,37.5833442 150.937688,37.5833442 L132.863302,37.5833442 L130.26707,44.8705168 L130.26707,44.8705168 Z" id="path34"></path>
                            <path d="M35.1632657,37.5069636 C35.1632657,37.5069636 39.125843,25.8513863 39.125843,25.3215068 C39.125843,25.2063156 35.4468133,25.3817607 34.466802,25.3215068 L42.8420883,0.883250679 L29.3381354,0.883250679 C29.3381354,0.883250679 21.230447,25.3977102 21.0975341,25.3977102 C21.0886733,25.3977102 4.72266199,25.3799885 4.72266199,25.3799885 C2.0980748,33.1828632 0.745907325,37.5069636 0.745907325,37.5069636 L35.1632657,37.5069636 L35.1632657,37.5069636 Z" id="path38"></path>
                            <path d="M102.254342,14.250392 C102.568017,13.2668363 102.739917,12.2194825 102.739917,11.1331409 C102.739917,5.49586076 98.261638,0.921884035 92.6279022,0.921884035 L73.1729946,0.928972724 C73.1729946,0.928972724 68.7531969,13.1870886 68.939275,13.1870886 L88.9152012,13.1870886 C88.9152012,13.1870886 86.6663146,19.8327347 84.7842676,25.3087472 L64.4716286,25.3211524 C64.4716286,25.3211524 60.0500587,37.5792682 60.2361368,37.5792682 L89.9590107,37.5792682 C90.9035786,37.5792682 94.7013438,36.8420446 95.8993323,32.8298465 C95.9294592,32.7288326 102.254342,14.250392 102.254342,14.250392" id="path42"></path>
                            <path d="M158.352102,37.5783822 L189.412966,37.5783822 C190.352218,37.5783822 193.924917,36.846475 195.117589,32.8519986 C195.184931,32.6233884 205.833915,1.87974317 206.00936,1.08935432 L192.482369,1.08935432 C189.047899,11.6444126 188.374473,13.859628 184.397719,25.4336853 L162.500758,25.3752036 C162.500758,25.3752036 158.167796,37.5783822 158.352102,37.5783822" id="path46"></path>
                            <path d="M184.286781,1.08988597 L177.2867,21.0108749 L164.089333,21.0108749 L170.738523,1.08988597 L184.286781,1.08988597 L184.286781,1.08988597 Z" id="path50"></path>
                            <path d="M96.4185788,37.5783822 L112.639272,37.5783822 C113.578523,37.5783822 117.154767,36.846475 118.343895,32.8519986 C118.413009,32.6233884 125.095871,13.5831691 125.271316,12.7927802 L111.747869,12.7927802 C108.308083,23.3478385 111.599007,13.859628 107.622252,25.4336853 L100.567234,25.3752036" id="path54"></path>
                            <path d="M37.1709597,37.5783822 L54.2972329,37.5783822 C55.2382564,37.5783822 58.8091836,36.846475 60.0018556,32.8519986 C60.0709703,32.6233884 70.7181815,1.87974317 70.8936266,1.08935432 L57.3666354,1.08935432 C53.9286211,11.6444126 53.25874,13.859628 49.2819853,25.4336853 L41.3231595,25.3752036" id="path58"></path>
                        </g>
                    </g>
                </g>
            </g>
        </g>
    </g>
</svg>