<?xml version="1.0" encoding="UTF-8" standalone="no"?>
<svg width="189px" height="69px" viewBox="0 0 189 69" version="1.1" xmlns="http://www.w3.org/2000/svg" xmlns:xlink="http://www.w3.org/1999/xlink" xmlns:sketch="http://www.bohemiancoding.com/sketch/ns">
    <!-- Generator: Sketch 3.3.1 (12005) - http://www.bohemiancoding.com/sketch -->
    <title>Shape + Shape + Shape</title>
    <desc>Created with Sketch.</desc>
    <defs></defs>
    <g id="Page-1" stroke="none" stroke-width="1" fill="none" fill-rule="evenodd" sketch:type="MSPage">
        <g id="Desktop-HD" sketch:type="MSArtboardGroup" transform="translate(-915.000000, -285.000000)" fill="#3FAC49">
            <g id="Shape-+-Shape-+-Shape" sketch:type="MSLayerGroup" transform="translate(915.000000, 285.000000)">
                <path d="M56.2318808,44.3256 C54.2242252,42.1038 51.3429139,39.8794909 47.5716755,37.6576909 C47.736894,37.6576909 48.2087682,37.4519455 48.983543,37.0442182 C52.2779007,34.9039636 54.5246225,32.8891636 55.718702,30.9948 C57.2544834,28.5246 57.834,25.4860909 57.4497417,21.8692364 L56.2106026,10.2584182 C55.9652781,8.03661818 54.7223841,5.98292727 52.4744106,4.08856364 C50.2176755,2.19169091 47.9834702,1.25454545 45.774298,1.25454545 L29.8995497,1.25454545 L31.7219603,18.2824909 L34.4217815,18.2824909 C34.8373311,18.2824909 35.3404967,18.423 35.946298,18.7115455 C36.5508477,18.9988364 36.931351,19.8243273 37.0777947,21.2093455 C37.1491391,21.8679818 37.1416291,22.5680182 37.0577682,23.3408182 C36.9764106,24.1123636 36.7949205,24.7647273 36.5295695,25.2941455 C36.255457,25.8235636 35.7698146,26.4784364 35.0763974,27.2499818 C34.3767219,28.0252909 33.7846887,28.4004 33.2940397,28.4004 C33.2014172,28.3263818 33.111298,28.2410727 33.0211788,28.1607818 C32.9310596,28.0804909 32.6707152,27.9537818 32.242649,27.7881818 C30.6530464,26.7168 29.6279404,25.9791273 29.1760927,25.5601091 C28.0871523,24.5803091 27.485106,23.5515818 27.3712053,22.4802 L26.0920132,10.5068182 C25.8441854,8.20974545 24.5687483,6.08705455 22.2757152,4.15129091 C19.9739205,2.2218 17.6746291,1.2558 15.3803444,1.2558 L-1.77635684e-14,1.2558 L1.82491391,18.2837455 L4.0365894,18.2837455 C4.69370861,18.2837455 5.38211921,18.4242545 6.11433775,18.7128 C6.84280132,19.0026 7.28088079,19.8469091 7.43358278,21.2356909 L8.3497947,29.8431273 C8.84419868,34.4397818 13.9584636,38.7830182 23.7063576,42.8803636 C33.4504967,46.9752 38.3657483,49.4002364 38.4458543,50.1354 C38.4871589,50.5443818 38.3031656,50.9332909 37.8951258,51.3033818 C37.4820795,51.6784909 37.0339868,51.8566364 36.5420861,51.8566364 L7.37976159,51.8566364 L9.20592715,68.8883455 L47.1661391,68.8883455 C51.3303974,68.8883455 54.769947,67.4468727 57.4835364,64.5727091 C60.1921192,61.6922727 61.3261192,58.1481818 60.8780265,53.9542364 C60.5050331,50.4954545 58.9604901,47.2825636 56.2318808,44.3256" id="Shape" sketch:type="MSShapeGroup"></path>
                <path d="M107.489682,7.17850909 C103.046305,3.22794545 98.2850066,1.25454545 93.2007815,1.25454545 L61.3311258,1.25454545 L63.1547881,18.2824909 L87.2704371,18.2824909 C88.7448874,18.2824909 90.1517483,18.9586909 91.4847616,20.3186182 C92.8152715,21.6810545 93.5650132,23.0936727 93.7227219,24.5790545 L98.4627417,68.8883455 L120.113881,68.8883455 L114.980841,20.8756364 C114.427609,15.6906 111.929305,11.1253091 107.489682,7.17850909" id="Shape" sketch:type="MSShapeGroup"></path>
                <path d="M188.811,59.1179455 L184.161099,15.6730364 C183.706748,11.3950364 181.568921,7.71294545 177.758881,4.62174545 C173.938828,1.54309091 169.89598,0 165.632841,0 C162.512464,0 159.066656,0.741436364 155.294166,2.2218 C153.639477,2.88043636 150.511589,4.32190909 145.906748,6.53618182 C145.023079,5.13861818 143.805219,3.933 142.258172,2.89925455 C140.712377,1.87178182 139.241682,1.35867273 137.851093,1.35867273 L118.907285,1.35867273 L120.72594,18.3853636 L123.434523,18.3853636 C124.58104,18.3853636 125.463457,18.6312545 126.094291,19.1318182 C126.722623,19.6198364 127.111887,20.6034 127.273351,22.08 L132.28498,68.9949818 L153.944881,68.9949818 L148.93951,22.218 C149.995907,21.4753091 151.539199,20.7100364 153.569384,19.9309636 C155.607079,19.1493818 157.150371,18.7592182 158.210523,18.7592182 C159.584841,18.7592182 160.765152,19.3124727 161.732682,20.4202364 C162.707722,21.5267455 163.27347,22.8176727 163.429927,24.2967818 L166.073424,49.0100727 C166.194834,50.1579818 165.854384,50.9370545 165.053325,51.3397636 C164.249762,51.7575273 163.200874,51.9620182 161.912921,51.9620182 L158.76,51.9620182 L160.579907,68.9937273 L180.884265,68.9937273 C183.177298,68.9937273 185.137391,67.9386545 186.760788,65.8460727 C188.384185,63.7497273 189.062583,61.5091091 188.811,59.1179455" id="Shape" sketch:type="MSShapeGroup"></path>
            </g>
        </g>
    </g>
</svg>