<svg viewBox="0 0 49 31" xmlns="http://www.w3.org/2000/svg"><path d="M1.513 2.157c-1.843 2.53-1.536 6.516.538 8.586l1.844 1.763-1.535 2.3C.975 16.57.667 18.026.667 23.468v6.517h14.59l2.072-3.833c1.92-3.45 2.15-4.6 2.15-11.116 0-6.44-.23-7.666-1.535-9.506-1.536-1.84-2.074-1.993-7.448-1.993-5.068 0-5.76-.153-6.143-1.533C3.817.01 2.972.087 1.514 2.157zm15.357 12.42c.614 1.072 1.075 2.835.92 4.062l-.23 2.144H3.74l.153-2.3c.384-5.672.538-5.75 6.373-5.75 4.838 0 5.375.154 6.527 1.84h.077v.003zm4.453-11.423c-1.536 3.603-1.382 5.212.537 7.666 1.152 1.226 1.536 2.606 1.23 3.68-.23.92-.23 4.905 0 8.815l.536 7.13 8.063-.154 8.06-.23 1-4.214c1.303-5.826 3.607-10.732 5.987-13.032 2.457-2.3 2.61-5.673.46-8.433-.767-1.072-1.535-2.3-1.535-2.835 0-1.534-2.303-.154-3.455 2.146-1.536 2.838-1.536 4.754.153 7.514 1.23 2.146 1.23 2.3-.766 5.826-2.534 4.215-3.072 4.445-7.68 4.14l-3.607-.23 1.996-4.218c1.843-3.833 1.996-4.14 3.07-2.76 1 1.534 1.076 1.534 2.612 0 2.303-2.07 1.996-5.672-.768-8.432-1.23-1.15-2.303-2.606-2.303-3.066 0-1.534-1.306-1.227-2.61.613-1.537 2.146-1.537 5.98-.155 7.896.92 1.226.766 1.993-1.384 5.903-1.843 3.373-2.764 4.446-3.84 4.293-1.304-.23-1.688-.92-1.842-4.065-.23-3.067 0-3.68.768-2.913 1.382 1.533 1.843 1.226 2.918-1.304 1.23-3.067.462-5.673-2.303-8.203-1.305-1.074-2.303-2.453-2.303-3.067 0-1.916-1.536-.996-2.764 1.687l-.077-.153v.002z" fill="#000" fill-rule="evenodd"/></svg>