<?xml version="1.0" standalone="no"?>
<!DOCTYPE svg PUBLIC "-//W3C//DTD SVG 20010904//EN"
 "http://www.w3.org/TR/2001/REC-SVG-20010904/DTD/svg10.dtd">
<svg version="1.0" xmlns="http://www.w3.org/2000/svg"
 width="86.000000pt" height="106.000000pt" viewBox="0 0 86.000000 106.000000"
 preserveAspectRatio="xMidYMid meet">
<metadata>
Created by potrace 1.13, written by Peter Selinger 2001-2015
</metadata>
<g transform="translate(0.000000,106.000000) scale(0.100000,-0.100000)"
fill="#000000" stroke="none">
<path d="M136 768 c-24 -33 -20 -85 7 -112 l24 -23 -21 -29 c-17 -24 -21 -43
-21 -114 l0 -85 95 0 95 0 27 50 c25 45 28 61 28 146 0 83 -3 100 -21 123 -19
24 -26 26 -96 26 -66 0 -75 2 -80 20 -7 26 -18 25 -37 -2z m199 -162 c9 -14
15 -37 13 -53 l-3 -28 -90 0 -90 0 2 30 c5 74 7 75 83 75 63 0 71 -2 85 -24z"/>
<path d="M394 755 c-19 -47 -18 -68 7 -99 14 -17 19 -35 15 -49 -3 -12 -3 -64
1 -115 l6 -93 105 3 105 3 13 55 c17 76 47 141 78 169 32 30 34 75 6 111 -11
14 -20 30 -20 37 0 21 -30 2 -45 -28 -19 -36 -19 -61 2 -97 16 -28 16 -30 -11
-76 -32 -55 -38 -58 -100 -54 l-46 3 26 55 c24 51 26 54 40 36 13 -19 14 -19
34 -1 30 28 26 75 -10 110 -16 16 -30 35 -30 42 0 20 -17 15 -34 -9 -20 -28
-21 -78 -2 -103 12 -16 10 -26 -18 -77 -24 -44 -36 -58 -51 -56 -16 3 -21 12
-23 53 -3 40 -1 48 9 38 19 -19 25 -16 39 17 16 39 6 74 -30 107 -17 14 -30
32 -30 40 0 25 -21 13 -36 -22z"/>
</g>
</svg>
