<svg version="1" xmlns="http://www.w3.org/2000/svg" viewBox="0 0 86.000000 106.000000"><path d="M13.6 29.2c-2.4 3.3-2 8.5.7 11.2l2.4 2.3-2 3c-1.8 2.3-2.2 4.2-2.2 11.3v8.5h19l2.7-5C36.7 56 37 54.5 37 46c0-8.4-.3-10-2-12.4-2-2.4-2.7-2.6-9.7-2.6-6.6 0-7.5-.2-8-2-.7-2.6-1.8-2.5-3.7.2zm20 16.2c.8 1.4 1.4 3.7 1.2 5.3l-.3 2.8h-18l.2-3c.5-7.4.7-7.5 8.3-7.5 6.3 0 7 .2 8.5 2.4zM39.4 30.5c-2 4.7-1.8 6.8.7 10 1.5 1.6 2 3.4 1.6 4.8-.3 1.2-.3 6.4 0 11.5l.7 9.3 10.5-.2 10.5-.3 1.3-5.5c1.7-7.6 4.7-14 7.8-17 3.2-3 3.4-7.4.6-11-1-1.4-2-3-2-3.7 0-2-3-.2-4.5 2.8-2 3.7-2 6.2.2 9.8 1.6 2.8 1.6 3-1 7.6-3.3 5.5-4 5.8-10 5.4l-4.7-.3 2.6-5.5c2.4-5 2.6-5.4 4-3.6 1.3 2 1.4 2 3.4 0 3-2.7 2.6-7.4-1-11-1.6-1.5-3-3.4-3-4 0-2-1.7-1.6-3.4.8-2 2.8-2 7.8-.2 10.3 1.2 1.6 1 2.6-1.8 7.7-2.4 4.4-3.6 5.8-5 5.6-1.7-.3-2.2-1.2-2.4-5.3-.3-4 0-4.8 1-3.8 1.8 2 2.4 1.6 3.8-1.7 1.6-4 .6-7.4-3-10.7-1.7-1.4-3-3.2-3-4 0-2.5-2-1.3-3.6 2.2z"/></svg>