<svg viewBox="0 0 308 64" xmlns="http://www.w3.org/2000/svg"><defs><linearGradient x1="-410.7%" y1="89.9%" x2="-412.4%" y2="-118.6%" id="a"><stop stop-color="#3060B2" offset="0%"/><stop stop-color="#0E305E" offset="99.5%"/><stop stop-color="#0E305E" offset="100%"/></linearGradient><linearGradient x1="-79.6%" y1="93.9%" x2="-80.1%" y2="-30%" id="b"><stop stop-color="#3060B2" offset="0%"/><stop stop-color="#0E305E" offset="99.5%"/><stop stop-color="#0E305E" offset="100%"/></linearGradient><linearGradient x1="33.8%" y1="94%" x2="32.8%" y2="-20.7%" id="c"><stop stop-color="#3060B2" offset="0%"/><stop stop-color="#0E305E" offset="99.5%"/><stop stop-color="#0E305E" offset="100%"/></linearGradient><linearGradient x1="121%" y1="93.3%" x2="120.4%" y2="-30.4%" id="d"><stop stop-color="#3060B2" offset="0%"/><stop stop-color="#0E305E" offset="99.5%"/><stop stop-color="#0E305E" offset="100%"/></linearGradient><linearGradient x1="368%" y1="88.8%" x2="366.3%" y2="-119.7%" id="e"><stop stop-color="#3060B2" offset="0%"/><stop stop-color="#0E305E" offset="99.5%"/><stop stop-color="#0E305E" offset="100%"/></linearGradient><linearGradient x1="324.6%" y1="92.9%" x2="323.8%" y2="-31%" id="f"><stop stop-color="#3060B2" offset="0%"/><stop stop-color="#0E305E" offset="99.5%"/><stop stop-color="#0E305E" offset="100%"/></linearGradient></defs><g fill="none" fill-rule="evenodd"><path d="M278.7 49h10.8l5-22H308l-6.4 27.8c-.7 3.3-4 6-7 6.2H279l-.3-12z" fill="url(#a)" transform="matrix(1 0 0 -1 0 64)"/><path d="M210.2 49.6h6.6l19.8-45 17-.3c13 0 19.6 4.7 20 18.6l1 30.5c0 4.5-3.5 7.7-7.4 7.7H256v-12h5.7l-1.3-25c-.2-4.8-2.7-7.8-7.7-7.8h-8.2l-4.3 9.6h9.7l1.2 28.8c.2 4-2.8 6.6-6.2 6.6h-12l-.2-12h5.4l-.6-18.3-10.8 25.7c-1.3 3.2-4 5-7 5h-9.3l-.2-12z" fill="url(#b)" transform="matrix(1 0 0 -1 0 64)"/><path d="M141.6 50.2h7.5l15.2-34-10.8-3.6 5.4-12 19.6 6.2c10 3 15 9.2 14.8 19.4l-.5 26.4c0 5-4 9.3-8.8 9.3h-11l-.2-12h7l.3-23.4c.2-3.3-1-5.3-3.7-6.3l-1-.4-16.5 37c-1.8 4-4.6 5.2-7 5.2h-10l-.2-12z" fill="url(#c)" transform="matrix(1 0 0 -1 0 64)"/><path d="M80.2 50.7h9.5l7.5-33H85.5l2.7-12 24.8-.2-10.2 45 19.4-.2 10.2-45h13.2l-11.4 50c-1 3.8-4.4 7-7.7 7l-46.2.5v-12z" fill="url(#d)" transform="matrix(1 0 0 -1 0 64)"/><path d="M52 51l10.7-.2 5-21.8h13.5l-6.4 27.7c-.7 3.3-4 6-7 6.2H52V51z" fill="url(#e)" transform="matrix(1 0 0 -1 0 64)"/><path d="M.4 51.4l25.3-.2L36 6.2 49 6 39 51h8.2l-2.7 12-44 .5v-12z" fill="url(#f)" transform="matrix(1 0 0 -1 0 64)"/></g></svg>