<?xml version="1.0" encoding="UTF-8" standalone="no"?>
<svg width="308px" height="64px" viewBox="0 0 308 64" version="1.1" xmlns="http://www.w3.org/2000/svg" xmlns:xlink="http://www.w3.org/1999/xlink" xmlns:sketch="http://www.bohemiancoding.com/sketch/ns">
    <!-- Generator: Sketch 3.3.1 (12005) - http://www.bohemiancoding.com/sketch -->
    <title>YeshAtid</title>
    <desc>Created with Sketch.</desc>
    <defs>
        <linearGradient x1="-410.700529%" y1="89.9307135%" x2="-412.392699%" y2="-118.557048%" id="linearGradient-1">
            <stop stop-color="#3060B2" offset="0%"></stop>
            <stop stop-color="#0E305E" offset="99.472%"></stop>
            <stop stop-color="#0E305E" offset="100%"></stop>
        </linearGradient>
        <linearGradient x1="-79.5632042%" y1="93.9091984%" x2="-80.1413996%" y2="-30.0493695%" id="linearGradient-2">
            <stop stop-color="#3060B2" offset="0%"></stop>
            <stop stop-color="#0E305E" offset="99.472%"></stop>
            <stop stop-color="#0E305E" offset="100%"></stop>
        </linearGradient>
        <linearGradient x1="33.771885%" y1="94.0413584%" x2="32.8145946%" y2="-20.7452572%" id="linearGradient-3">
            <stop stop-color="#3060B2" offset="0%"></stop>
            <stop stop-color="#0E305E" offset="99.472%"></stop>
            <stop stop-color="#0E305E" offset="100%"></stop>
        </linearGradient>
        <linearGradient x1="121.01004%" y1="93.3351519%" x2="120.441091%" y2="-30.3913814%" id="linearGradient-4">
            <stop stop-color="#3060B2" offset="0%"></stop>
            <stop stop-color="#0E305E" offset="99.472%"></stop>
            <stop stop-color="#0E305E" offset="100%"></stop>
        </linearGradient>
        <linearGradient x1="368.008658%" y1="88.7620205%" x2="366.316081%" y2="-119.704105%" id="linearGradient-5">
            <stop stop-color="#3060B2" offset="0%"></stop>
            <stop stop-color="#0E305E" offset="99.472%"></stop>
            <stop stop-color="#0E305E" offset="100%"></stop>
        </linearGradient>
        <linearGradient x1="324.552857%" y1="92.8638975%" x2="323.792337%" y2="-30.9874589%" id="linearGradient-6">
            <stop stop-color="#3060B2" offset="0%"></stop>
            <stop stop-color="#0E305E" offset="99.472%"></stop>
            <stop stop-color="#0E305E" offset="100%"></stop>
        </linearGradient>
    </defs>
    <g id="Page-1" stroke="none" stroke-width="1" fill="none" fill-rule="evenodd" sketch:type="MSPage">
        <g id="Desktop-HD" sketch:type="MSArtboardGroup" transform="translate(-486.000000, -450.000000)">
            <g id="Yesh-Atid" sketch:type="MSLayerGroup" transform="translate(467.000000, 416.000000)">
                <g id="YeshAtid" transform="translate(173.000000, 66.000000) scale(1, -1) translate(-173.000000, -66.000000) translate(19.000000, 34.000000)" sketch:type="MSShapeGroup">
                    <path d="M278.675738,49.0230207 L289.494772,48.9295202 L294.450418,27.1051055 L307.941666,26.9939634 L307.941666,26.9974918 L301.631442,54.7759442 C300.878508,58.0978561 297.729553,60.8746429 294.64217,60.9752 L294.64217,60.9752 L280.28188,61.0986911 L278.878045,61.1128044 L278.675738,49.0230207 L278.675738,49.0230207 Z" id="path1456" fill="url(#linearGradient-1)"></path>
                    <path d="M210.232589,49.5963724 L216.847153,49.5399193 L236.627515,4.4621208 L253.605483,4.31216726 C266.473977,4.20808186 273.241591,8.95014207 273.649724,22.8658307 L273.649724,22.8658307 L274.458953,53.4687021 C274.590892,57.9778933 271.102413,61.1780783 267.170618,61.208069 L267.170618,61.208069 L260.788267,61.2680504 L256.089463,61.3050977 L255.888915,49.2117857 L261.703047,49.1623893 L260.427632,24.1254404 C260.163753,19.4274842 257.729031,16.3754886 252.732924,16.4178284 L252.732924,16.4178284 L244.508698,16.4883948 L240.200435,26.0236758 L249.941085,25.9442887 L251.227055,54.8218123 C251.429362,58.6535663 248.403551,61.3686075 245.00655,61.3950699 L245.00655,61.3950699 L232.945525,61.4991553 L232.750255,49.4111357 L238.200233,49.3617393 L237.617941,31.130917 L226.821775,56.6600663 C225.451364,59.9308177 222.940996,61.5855991 219.809633,61.6120615 L219.809633,61.6120615 L214.141515,61.6561654 L210.433137,61.6896845 L210.232589,49.5963724 L210.232589,49.5963724 Z" id="path1478" fill="url(#linearGradient-2)"></path>
                    <path d="M141.599447,50.1750167 L149.112959,50.1132711 L164.23322,16.1055722 L153.363168,12.5578479 L158.774445,0.506875642 C162.846976,1.82293848 175.377705,5.93519382 178.399998,6.77493365 L178.399998,6.77493365 C188.532948,9.66639075 193.34258,15.959147 193.152587,26.2283183 L193.152587,26.2283183 L192.688161,52.6289623 C192.621311,57.6056557 188.821455,61.8519871 183.923863,61.9154969 L183.923863,61.9154969 L182.081988,61.927846 L172.986962,62.005469 L172.789933,49.9174494 L179.849573,49.857468 L180.131043,26.6287825 C180.185578,23.2662948 178.85211,21.2622099 176.299522,20.3254413 L176.299522,20.3254413 L175.317892,19.9479112 L158.799074,56.9440959 C156.97655,61.0563513 154.168878,62.1501301 151.68138,62.1871774 L151.68138,62.1871774 L150.458741,62.194234 L141.805273,62.271857 L141.599447,50.1750167 L141.599447,50.1750167 Z" id="path1500" fill="url(#linearGradient-3)"></path>
                    <path d="M80.2176975,50.6972079 L89.6874315,50.6142924 L97.1569634,17.7338912 L85.4530548,17.8291559 L88.2009137,5.71290975 L113.040714,5.50121063 L102.823323,50.5066786 L122.214903,50.3390835 L132.434053,5.33890798 L145.571704,5.23129426 L134.166858,55.4251548 C133.336519,59.0769645 129.828689,62.3724141 126.521407,62.3953482 L126.521407,62.3953482 L80.3250082,62.7905199 L80.2176975,50.6972079 L80.2176975,50.6972079 Z" id="path1522" fill="url(#linearGradient-4)"></path>
                    <path d="M51.8929368,50.9353694 L62.7014164,50.8418689 L67.6588212,29.01569 L81.1518288,28.904548 L74.834568,56.6935853 C74.0833928,60.0190256 70.9150868,62.8116898 67.820667,62.8946053 L67.820667,62.8946053 L58.926189,62.9687 L52.086448,63.0269172 L51.8929368,50.9353694 L51.8929368,50.9353694 Z" id="path1544" fill="url(#linearGradient-5)"></path>
                    <path d="M0.418960169,51.3675884 L25.7091136,51.1558893 L35.9300228,6.15218542 L49.2435927,6.03927922 L39.0174059,51.0465114 L47.2416315,50.975945 L44.4920134,63.0886628 L0.614230552,63.4609004 L0.418960169,51.3675884 L0.418960169,51.3675884 Z" id="path1566" fill="url(#linearGradient-6)"></path>
                </g>
            </g>
        </g>
    </g>
</svg>