<?xml version="1.0" encoding="UTF-8" ?>
<!DOCTYPE svg PUBLIC "-//W3C//DTD SVG 1.1//EN" "http://www.w3.org/Graphics/SVG/1.1/DTD/svg11.dtd">
<svg width="300pt" height="81pt" viewBox="0 0 300 81" version="1.1" xmlns="http://www.w3.org/2000/svg">
<path fill="#fdfefd" d=" M 0.00 0.00 L 300.00 0.00 L 300.00 48.79 C 293.75 47.37 287.78 44.84 281.39 44.05 C 281.33 40.90 281.28 37.75 281.40 34.60 C 279.46 31.10 275.19 32.32 271.92 32.12 C 261.31 31.93 250.66 32.75 240.09 31.67 C 211.64 22.86 182.93 14.95 154.40 6.43 C 151.92 5.65 149.25 4.97 146.68 5.77 C 121.33 13.01 96.07 20.56 70.74 27.86 C 65.50 29.23 60.51 31.89 54.99 31.90 C 50.34 31.99 45.69 31.82 41.04 31.88 C 40.85 32.07 40.48 32.44 40.29 32.62 C 34.07 32.09 27.74 31.74 21.54 32.55 C 19.14 35.48 20.43 39.76 19.70 43.25 C 12.98 44.39 6.44 46.52 0.00 48.71 L 0.00 0.00 Z" />
<path fill="#06a8af" d=" M 146.68 5.77 C 149.25 4.97 151.92 5.65 154.40 6.43 C 182.93 14.95 211.64 22.86 240.09 31.67 C 234.42 31.46 228.68 31.87 223.19 33.35 C 221.52 32.92 219.83 32.49 218.09 32.39 C 208.00 31.96 197.86 32.90 187.80 31.91 C 176.89 28.75 166.25 24.72 155.48 21.14 C 152.79 20.32 149.94 18.78 147.11 19.90 C 135.12 23.92 123.16 28.04 111.21 32.18 C 97.80 32.49 84.39 32.27 70.98 32.32 C 60.76 31.12 50.52 32.49 40.29 32.62 C 40.48 32.44 40.85 32.07 41.04 31.88 C 45.69 31.82 50.34 31.99 54.99 31.90 C 60.51 31.89 65.50 29.23 70.74 27.86 C 96.07 20.56 121.33 13.01 146.68 5.77 Z" />
<path fill="#fdfefd" d=" M 147.11 19.90 C 149.94 18.78 152.79 20.32 155.48 21.14 C 166.25 24.72 176.89 28.75 187.80 31.91 C 187.11 33.24 186.45 34.58 185.84 35.94 C 184.74 34.55 184.25 31.85 181.98 32.20 C 173.97 32.07 165.95 32.22 157.93 32.18 C 157.63 29.98 158.20 27.11 155.84 25.85 C 151.86 25.17 147.79 25.58 143.77 25.53 C 142.98 26.18 142.20 26.83 141.41 27.48 C 141.28 33.98 141.46 40.48 141.30 46.98 C 144.88 50.49 150.23 48.89 154.70 49.12 C 154.78 50.91 154.86 52.70 154.94 54.49 C 152.71 54.74 149.11 54.26 148.47 57.13 C 148.25 61.85 147.57 66.89 149.48 71.37 C 152.87 71.51 156.28 71.77 159.65 71.35 C 163.02 70.83 165.41 68.19 167.97 66.18 C 166.76 68.23 167.49 70.75 169.83 71.37 C 174.02 71.81 178.26 71.47 182.47 71.46 C 183.64 69.69 183.84 67.91 183.06 66.11 C 184.78 67.59 185.61 69.96 187.50 71.23 C 191.59 71.87 195.78 71.57 199.91 71.47 C 202.24 71.66 204.12 68.89 203.06 66.79 C 201.70 63.70 199.81 60.90 198.15 57.97 C 199.49 56.75 201.22 55.77 202.02 54.09 C 202.28 52.47 202.30 50.83 202.39 49.19 C 205.46 49.22 208.54 49.22 211.61 49.23 C 211.69 55.85 211.40 62.48 211.71 69.09 C 211.62 70.50 213.27 71.25 214.45 71.42 C 218.62 71.87 222.82 71.40 227.00 71.35 C 233.98 71.61 240.96 71.60 247.94 71.53 C 253.25 71.58 258.22 68.41 261.22 64.16 C 263.85 60.41 263.71 55.66 264.12 51.30 C 264.36 52.89 264.58 54.49 264.79 56.08 C 269.00 59.35 274.85 57.90 279.77 57.54 C 280.16 56.92 280.93 55.68 281.32 55.06 C 281.33 54.43 281.35 53.16 281.36 52.53 C 287.57 52.53 293.81 53.09 300.00 52.36 L 300.00 81.00 L 0.00 81.00 L 0.00 52.70 C 8.12 52.64 16.24 52.65 24.36 52.54 C 24.26 58.22 24.23 63.90 24.34 69.58 C 24.73 70.03 25.51 70.93 25.90 71.38 C 33.26 71.71 40.63 71.45 47.99 71.56 C 50.60 71.73 53.05 70.84 55.27 69.54 C 55.62 70.00 56.32 70.94 56.67 71.40 C 61.69 71.61 66.70 71.57 71.72 71.51 C 72.41 70.98 73.11 70.46 73.80 69.93 C 74.28 70.32 75.23 71.11 75.71 71.50 C 79.77 71.48 83.87 71.83 87.91 71.30 C 91.33 67.58 89.11 61.83 89.57 57.24 C 93.17 58.04 96.88 57.99 100.55 57.84 C 100.64 61.73 100.66 65.61 100.51 69.49 C 101.82 70.61 103.27 71.71 105.10 71.54 C 112.76 71.51 120.42 71.70 128.07 71.43 C 130.82 71.50 130.92 68.01 130.89 66.02 C 130.52 62.08 132.29 56.93 128.36 54.31 C 128.26 47.45 128.39 40.59 128.29 33.73 C 126.97 33.00 125.66 32.03 124.06 32.18 C 119.78 32.09 115.49 32.19 111.21 32.18 C 123.16 28.04 135.12 23.92 147.11 19.90 Z" />
<path fill="#142236" d=" M 141.41 27.48 C 142.20 26.83 142.98 26.18 143.77 25.53 C 147.79 25.58 151.86 25.17 155.84 25.85 C 158.20 27.11 157.63 29.98 157.93 32.18 C 165.95 32.22 173.97 32.07 181.98 32.20 C 184.25 31.85 184.74 34.55 185.84 35.94 C 186.45 34.58 187.11 33.24 187.80 31.91 C 197.86 32.90 208.00 31.96 218.09 32.39 C 219.83 32.49 221.52 32.92 223.19 33.35 C 228.68 31.87 234.42 31.46 240.09 31.67 C 250.66 32.75 261.31 31.93 271.92 32.12 C 275.19 32.32 279.46 31.10 281.40 34.60 C 281.28 37.75 281.33 40.90 281.39 44.05 C 281.42 46.88 281.40 49.70 281.36 52.53 C 281.35 53.16 281.33 54.43 281.32 55.06 C 280.93 55.68 280.16 56.92 279.77 57.54 C 274.85 57.90 269.00 59.35 264.79 56.08 C 264.58 54.49 264.36 52.89 264.12 51.30 C 263.71 55.66 263.85 60.41 261.22 64.16 C 258.22 68.41 253.25 71.58 247.94 71.53 C 240.96 71.60 233.98 71.61 227.00 71.35 C 222.82 71.40 218.62 71.87 214.45 71.42 C 213.27 71.25 211.62 70.50 211.71 69.09 C 211.40 62.48 211.69 55.85 211.61 49.23 C 208.54 49.22 205.46 49.22 202.39 49.19 C 202.30 50.83 202.28 52.47 202.02 54.09 C 201.22 55.77 199.49 56.75 198.15 57.97 C 199.81 60.90 201.70 63.70 203.06 66.79 C 204.12 68.89 202.24 71.66 199.91 71.47 C 195.78 71.57 191.59 71.87 187.50 71.23 C 185.61 69.96 184.78 67.59 183.06 66.11 C 183.84 67.91 183.64 69.69 182.47 71.46 C 178.26 71.47 174.02 71.81 169.83 71.37 C 167.49 70.75 166.76 68.23 167.97 66.18 C 165.41 68.19 163.02 70.83 159.65 71.35 C 156.28 71.77 152.87 71.51 149.48 71.37 C 147.57 66.89 148.25 61.85 148.47 57.13 C 149.11 54.26 152.71 54.74 154.94 54.49 C 154.86 52.70 154.78 50.91 154.70 49.12 C 150.23 48.89 144.88 50.49 141.30 46.98 C 141.46 40.48 141.28 33.98 141.41 27.48 Z" />
<path fill="#fdfefd" d=" M 144.69 28.89 C 147.90 28.79 151.13 28.78 154.34 29.16 C 154.29 31.28 154.26 33.41 154.23 35.53 C 158.76 35.57 163.28 35.52 167.81 35.52 C 167.67 42.00 167.80 48.48 167.74 54.95 C 167.93 60.24 164.67 65.39 159.95 67.69 C 157.34 68.69 154.45 68.17 151.72 68.33 C 151.68 64.97 151.68 61.61 151.73 58.26 C 153.89 58.09 157.28 58.80 158.32 56.27 C 158.52 52.73 158.34 49.19 158.48 45.65 C 153.90 45.70 149.31 45.66 144.73 45.63 C 144.79 40.05 144.83 34.47 144.69 28.89 Z" />
<path fill="#142236" d=" M 21.54 32.55 C 27.74 31.74 34.07 32.09 40.29 32.62 C 50.52 32.49 60.76 31.12 70.98 32.32 C 84.39 32.27 97.80 32.49 111.21 32.18 C 115.49 32.19 119.78 32.09 124.06 32.18 C 125.66 32.03 126.97 33.00 128.29 33.73 C 128.39 40.59 128.26 47.45 128.36 54.31 C 132.29 56.93 130.52 62.08 130.89 66.02 C 130.92 68.01 130.82 71.50 128.07 71.43 C 120.42 71.70 112.76 71.51 105.10 71.54 C 103.27 71.71 101.82 70.61 100.51 69.49 C 100.66 65.61 100.64 61.73 100.55 57.84 C 96.88 57.99 93.17 58.04 89.57 57.24 C 89.11 61.83 91.33 67.58 87.91 71.30 C 83.87 71.83 79.77 71.48 75.71 71.50 C 75.23 71.11 74.28 70.32 73.80 69.93 C 73.11 70.46 72.41 70.98 71.72 71.51 C 66.70 71.57 61.69 71.61 56.67 71.40 C 56.32 70.94 55.62 70.00 55.27 69.54 C 53.05 70.84 50.60 71.73 47.99 71.56 C 40.63 71.45 33.26 71.71 25.90 71.38 C 25.51 70.93 24.73 70.03 24.34 69.58 C 24.23 63.90 24.26 58.22 24.36 52.54 C 24.40 48.66 19.32 47.34 19.70 43.25 C 20.43 39.76 19.14 35.48 21.54 32.55 Z" />
<path fill="#fdfefd" d=" M 23.60 35.52 C 28.14 35.53 32.69 35.48 37.23 35.60 C 37.16 46.50 37.22 57.41 37.19 68.31 C 34.02 68.30 30.85 68.26 27.68 68.32 C 27.73 60.71 27.68 53.10 27.70 45.49 C 26.32 45.51 24.93 45.53 23.55 45.55 C 23.60 42.21 23.56 38.86 23.60 35.52 Z" />
<path fill="#fdfefd" d=" M 42.20 35.48 C 46.69 35.59 51.17 35.52 55.66 35.50 C 55.55 44.03 55.75 52.57 55.59 61.10 C 55.59 64.44 52.91 67.36 49.75 68.17 C 46.34 68.49 42.90 68.21 39.47 68.30 C 39.43 64.95 39.42 61.60 39.48 58.25 C 41.76 58.23 44.05 58.24 46.33 58.23 C 46.34 53.98 46.35 49.72 46.25 45.47 C 44.92 45.52 43.58 45.57 42.24 45.62 C 42.15 42.24 42.18 38.86 42.20 35.48 Z" />
<path fill="#fdfefd" d=" M 88.51 35.49 C 92.97 35.51 97.43 35.59 101.89 35.50 C 101.81 41.85 101.93 48.21 101.91 54.56 C 98.80 54.49 95.68 54.50 92.57 54.59 C 92.57 51.58 92.58 48.57 92.55 45.56 C 91.23 45.60 89.90 45.65 88.58 45.69 C 88.62 42.29 88.61 38.89 88.51 35.49 Z" />
<path fill="#fdfefd" d=" M 104.79 35.61 C 111.45 35.46 118.11 35.56 124.77 35.54 C 124.69 43.13 124.79 50.71 124.72 58.29 C 125.42 58.28 126.81 58.26 127.50 58.26 C 127.40 61.57 127.41 64.89 127.53 68.21 C 119.75 68.39 111.96 68.24 104.18 68.28 C 104.23 64.92 104.24 61.57 104.14 58.22 C 107.93 58.23 111.72 58.21 115.51 58.26 C 115.53 54.00 115.53 49.75 115.56 45.49 C 111.98 45.53 108.41 45.52 104.84 45.48 C 104.89 42.19 104.87 38.90 104.79 35.61 Z" />
<path fill="#fdfefd" d=" M 170.61 35.49 C 174.27 35.52 177.93 35.57 181.59 35.52 C 184.36 39.69 185.98 44.66 189.41 48.35 C 189.61 44.09 189.44 39.82 189.48 35.55 C 192.54 35.55 195.60 35.55 198.67 35.52 C 198.66 41.42 198.69 47.31 198.68 53.21 C 196.87 54.32 195.11 55.50 193.39 56.75 C 195.61 60.55 197.61 64.47 199.81 68.27 C 196.17 68.28 192.53 68.31 188.90 68.33 C 186.54 63.98 184.25 59.60 181.91 55.24 C 180.88 55.87 180.38 56.75 180.41 57.89 C 180.31 61.39 180.43 64.89 180.42 68.39 C 177.23 68.30 174.05 68.25 170.86 68.35 C 170.80 62.53 170.96 56.71 170.74 50.90 C 172.81 49.57 174.91 48.29 176.99 46.98 C 175.11 43.01 172.53 39.43 170.61 35.49 Z" />
<path fill="#fdfefd" d=" M 201.79 35.56 C 207.22 35.59 212.66 35.39 218.09 35.56 C 220.04 35.53 221.47 37.09 223.06 37.99 C 223.77 39.61 224.62 41.26 224.56 43.08 C 224.52 51.49 224.50 59.90 224.55 68.31 C 221.44 68.26 218.34 68.26 215.23 68.35 C 215.13 60.73 215.18 53.12 215.21 45.50 C 210.73 45.48 206.24 45.55 201.75 45.40 C 201.83 42.12 201.84 38.84 201.79 35.56 Z" />
<path fill="#fdfefd" d=" M 240.28 35.53 C 243.32 35.53 246.36 35.52 249.41 35.56 C 248.51 41.67 248.00 47.82 247.13 53.93 C 244.66 56.10 241.07 54.98 238.09 55.21 C 238.16 56.25 238.23 57.29 238.32 58.33 C 242.07 58.14 245.89 58.53 249.54 57.48 C 251.87 50.45 251.76 42.87 252.73 35.58 C 256.01 35.51 259.28 35.50 262.56 35.52 C 261.82 42.68 260.91 49.83 260.20 57.00 C 259.39 63.70 252.58 68.53 246.07 68.30 C 240.56 68.30 235.05 68.18 229.54 68.40 C 228.51 57.45 227.77 46.46 226.59 35.52 C 229.84 35.52 233.10 35.53 236.36 35.58 C 236.93 40.44 236.43 45.56 238.22 50.18 C 240.00 45.51 239.54 40.40 240.28 35.53 Z" />
<path fill="#fdfefd" d=" M 264.34 35.53 C 268.77 35.53 273.20 35.57 277.63 35.51 C 277.55 41.87 277.63 48.23 277.64 54.58 C 274.52 54.48 271.41 54.50 268.29 54.56 C 268.28 51.57 268.26 48.59 268.27 45.61 C 266.97 45.64 265.66 45.67 264.36 45.70 C 264.42 42.31 264.42 38.92 264.34 35.53 Z" />
<path fill="#fdfefd" d=" M 59.14 35.50 C 68.20 35.51 77.26 35.50 86.32 35.53 C 86.31 46.46 86.20 57.39 86.34 68.32 C 83.15 68.31 79.97 68.28 76.78 68.28 C 76.80 60.68 76.83 53.08 76.76 45.48 C 74.71 45.52 72.66 45.53 70.61 45.54 C 70.72 53.14 70.67 60.74 70.65 68.35 C 66.60 68.28 62.55 68.30 58.51 68.38 C 58.50 65.00 58.49 61.63 58.49 58.25 C 59.20 58.26 60.62 58.26 61.33 58.27 C 61.33 54.02 61.32 49.77 61.37 45.52 C 60.81 45.52 59.68 45.51 59.12 45.51 C 59.13 42.17 59.12 38.83 59.14 35.50 Z" />
<path fill="#06a8af" d=" M 0.00 48.71 C 6.44 46.52 12.98 44.39 19.70 43.25 C 19.32 47.34 24.40 48.66 24.36 52.54 C 16.24 52.65 8.12 52.64 0.00 52.70 L 0.00 48.71 Z" />
<path fill="#fdfefd" d=" M 171.75 46.53 C 170.20 45.77 170.13 44.96 171.54 44.10 C 173.06 44.86 173.12 45.67 171.75 46.53 Z" />
<path fill="#06a8af" d=" M 281.39 44.05 C 287.78 44.84 293.75 47.37 300.00 48.79 L 300.00 52.36 C 293.81 53.09 287.57 52.53 281.36 52.53 C 281.40 49.70 281.42 46.88 281.39 44.05 Z" />
<path fill="#06a8af" d=" M 40.70 49.27 C 41.29 49.32 42.48 49.42 43.08 49.47 C 42.84 49.98 42.36 51.00 42.12 51.51 C 40.68 51.89 40.56 53.54 40.80 54.75 C 40.41 54.10 40.05 53.43 39.73 52.74 C 39.97 51.87 40.46 50.14 40.70 49.27 Z" />
<path fill="#fdfefd" d=" M 105.49 49.16 C 107.62 49.20 109.75 49.22 111.88 49.23 C 111.84 51.02 111.83 52.81 111.83 54.60 C 109.71 54.61 107.59 54.63 105.46 54.65 C 105.48 52.82 105.49 50.99 105.49 49.16 Z" />
<path fill="#fdfefd" d=" M 40.80 54.75 C 40.56 53.54 40.68 51.89 42.12 51.51 C 42.32 52.09 42.73 53.24 42.93 53.82 L 42.37 54.88 C 41.97 54.85 41.19 54.78 40.80 54.75 Z" />
</svg>
