<svg viewBox="0 0 300 81" xmlns="http://www.w3.org/2000/svg"><path fill="#06a8af" d="M146.7 5.8c2.6-.8 5.2 0 7.7.6C183 15 211.6 23 240 31.7c-5.6-.2-11.3.2-16.8 1.7-1.7-.5-3.4-1-5-1-10.2-.4-20.3.5-30.4-.5-11-3.3-21.6-7.3-32.3-11-2.7-.7-5.6-2.2-8.4-1-12 4-23.8 8-35.8 12.2-13.4.3-26.8 0-40.2 0-10.2-1-20.5.3-30.7.4l.7-.7c4.7-.2 9.3 0 14 0 5.5 0 10.5-2.8 15.7-4 25.4-7.4 50.6-15 76-22.2z"/><path fill="#142236" d="M141.4 27.5l2.4-2c4 0 8-.3 12 .4 2.4 1 1.8 4 2 6.2H182c2.3-.4 2.7 2.3 3.8 3.7l2-4c10 1 20.2 0 30.3.4 1.8 0 3.5.5 5.2 1 5.5-1.5 11.2-2 17-1.7 10.5 1 21 .2 31.7.4 3.2.3 7.5-1 9.4 2.6V55l-1.6 2.5c-5 .4-10.8 2-15-1.4l-.7-4.7c-.3 4.4 0 9-2.8 13-3 4-8 7.3-13.3 7.2-7 0-14 0-21-.2-4.2 0-8.4.6-12.6 0-1 0-2.8-.8-2.7-2.2-.3-6.5 0-13 0-19.8h-9.3c0 1.6 0 3.3-.4 5-.8 1.6-2.5 2.5-3.8 3.8 1.6 3 3.5 5.7 5 8.8 1 2-1 5-3.3 4.7-4.2 0-8.4.4-12.5-.3-2-1.2-2.7-3.6-4.4-5 .8 1.7.6 3.5-.5 5.3-4.2 0-8.5.3-12.7 0-2.3-.8-3-3.3-1.8-5.3-2.6 2-5 4.6-8.3 5-3.4.6-6.8.3-10.2.2-2-4.5-1.3-9.6-1-14.3.6-2.7 4.2-2.3 6.4-2.5l-.3-5.4c-4.5 0-9.8 1.5-13.4-2 .2-6.5 0-13 0-19.5z"/><path fill="#fdfefd" d="M144.7 29c3.2-.2 6.4-.2 9.6.2v6.3h13.5V55c0 5.2-3 10.4-8 12.7-2.5 1-5.4.5-8 .6v-10c2-.2 5.5.5 6.5-2 .2-3.6 0-7 .2-10.6h-13.8V28.8z"/><path fill="#142236" d="M21.5 32.5c6.2-.8 12.6-.4 18.8 0 10.2 0 20.5-1.4 30.7-.2 13.4 0 26.8.2 40.2 0 4.3 0 8.6-.2 13 0 1.5-.3 2.8.7 4 1.4.2 7 0 13.8.2 20.6 4 2.6 2 7.8 2.5 11.7 0 2-.2 5.5-3 5.4-7.6.3-15.2 0-23 0-1.7.3-3.2-.8-4.5-2 .2-3.8 0-7.7 0-11.6-3.6.2-7.3.2-11-.6-.4 4.6 1.8 10.4-1.6 14-4 .6-8.2.3-12.3.3l-2-1.6-2 1.5h-15l-1.4-2c-2.3 1.3-4.7 2.2-7.3 2-7.4 0-14.7.2-22 0l-1.7-2v-17c0-3.8-5-5.2-4.6-9.3.7-3.4-.6-7.7 1.8-10.7z"/><path fill="#fdfefd" d="M23.6 35.5h13.6v32.8h-9.5V45.5h-4v-10zM42.2 35.5h13.5c-.2 8.5 0 17 0 25.6 0 3.4-2.8 6.4-6 7.2-3.4.3-6.8 0-10.2 0v-10h6.8V45.5h-4v-10zM88.5 35.5H102c-.2 6.4 0 12.7 0 19h-9.4v-9c-1.4 0-2.7 0-4 .2V35.5zM104.8 35.6h20v22.7h2.7v10h-23.3v-10h11.3V45.5H105v-10zM170.6 35.5h11c2.8 4.2 4.4 9.2 7.8 13 .2-4.4 0-8.7 0-13h9.3v17.7c-1.8 1-3.6 2.3-5.3 3.5l6.4 11.6h-11l-7-13c-1 .6-1.4 1.5-1.4 2.6v10.4c-3.2 0-6.3-.2-9.5 0-.2-6 0-11.7-.3-17.5 2-1.4 4.2-2.7 6.3-4-2-4-4.5-7.6-6.4-11.5zM201.8 35.6c5.4 0 11-.2 16.3 0 2 0 3.5 1.5 5 2.4.8 1.6 1.6 3.3 1.6 5v25.3h-9.4V45.5h-13.4v-10zM240.3 35.5h9c-.8 6.2-1.3 12.3-2.2 18.4-2.3 2-6 1-9 1.2l.3 3c3.8 0 7.6.3 11.2-.7 2.4-7 2.3-14.6 3.2-22h10c-1 7.2-1.8 14.3-2.5 21.5-.8 6.7-7.6 11.5-14 11.3h-16.7c-1-10.8-1.7-21.8-3-32.8h10c.4 5 0 10 1.7 14.7 1.8-4.7 1.3-9.8 2-14.7zM264.3 35.5h13.3v19h-9.3v-9l-4 .2V35.5zM59 35.5h27.3v32.8h-9.5V45.5h-6.2v22.8h-12v-10h2.7V45.5h-2.2v-10z"/><path fill="#06a8af" d="M0 48.7c6.4-2.2 13-4.3 19.7-5.5-.4 4 4.7 5.5 4.7 9.3-8.2 0-16.3 0-24.4.2v-4z"/><path fill="#fdfefd" d="M171.8 46.5c-1.6-.7-1.7-1.5-.3-2.4 1.6 1 1.6 1.7.3 2.5z"/><path fill="#06a8af" d="M281.4 44c6.4.8 12.4 3.4 18.6 4.8v3.6c-6.2.7-12.4 0-18.6 0V44zM40.7 49.3c.6 0 1.8 0 2.4.2-.2.5-.6 1.5-1 2-1.3.4-1.4 2-1.2 3.3l-1-2 1-3.5z"/><path fill="#fdfefd" d="M105.5 49.2h6.4c-.2 1.8-.2 3.6-.2 5.4h-6.3v-5.4zM40.8 54.8c-.2-1.3 0-3 1.3-3.3l1 2.3-.6 1h-1.6z"/></svg>