<?xml version="1.0" encoding="UTF-8" standalone="no"?>
<svg width="327px" height="37px" viewBox="0 0 327 37" version="1.1" xmlns="http://www.w3.org/2000/svg" xmlns:xlink="http://www.w3.org/1999/xlink" xmlns:sketch="http://www.bohemiancoding.com/sketch/ns">
    <!-- Generator: Sketch 3.3.1 (12005) - http://www.bohemiancoding.com/sketch -->
    <title>The_Zionist_Union_2015_Logo</title>
    <desc>Created with Sketch.</desc>
    <defs></defs>
    <g id="Page-1" stroke="none" stroke-width="1" fill="none" fill-rule="evenodd" sketch:type="MSPage">
        <g id="Desktop-HD" sketch:type="MSArtboardGroup" transform="translate(-477.000000, -141.000000)" fill="#203367">
            <g id="Zionist-Party" sketch:type="MSLayerGroup" transform="translate(467.000000, 94.000000)">
                <g id="The_Zionist_Union_2015_Logo" transform="translate(8.500000, 46.500000)" sketch:type="MSShapeGroup">
                    <g id="g10" transform="translate(164.500000, 19.480000) scale(1, -1) translate(-164.500000, -19.480000) translate(0.000000, 0.480000)">
                        <g id="g4137" transform="translate(164.976051, 19.403063) scale(1, -1) translate(-164.976051, -19.403063) translate(0.976051, 0.903063)">
                            <path d="M113.74313,2.625332 C121.92313,2.675332 130.11313,2.525332 138.29313,2.685332 C141.45313,2.695332 143.94313,5.535332 144.21313,8.575332 C145.89313,17.90533 147.49313,27.25533 149.17313,36.59533 C145.26313,36.63533 141.34313,36.65533 137.44413,36.53533 C136.21413,28.72533 134.60413,20.96533 133.43413,13.14533 C126.97413,12.99533 120.50413,13.11533 114.04413,13.05533 C114.03313,9.575332 113.93313,6.095332 113.74313,2.625332 L113.74313,2.625332 Z" id="path4059"></path>
                            <path d="M163.86,2.64 C171.95,2.74 180.03,2.56 188.11,2.71 C191.2,2.72 193.91,5.37 194.16,8.42 C195.84,17.88 197.48,27.35 199.17,36.81 C195.31,36.8 191.45,36.8 187.59,36.85 C186.09,29.08 184.71,21.29 183.48,13.47 C177.01,13.26 170.53,13.41 164.05,13.37 C163.96,9.79 163.81,6.22 163.86,2.64 L163.86,2.64 Z" id="path4035"></path>
                            <path d="M199.05,2.63 C203,2.71 206.96,2.5 210.91,2.76 C213.77,2.94 215.71,5.75 216,8.42 C217.71,17.86 219.26,27.34 221.05,36.77 C214.32,36.85 207.59,36.82 200.87,36.79 C200.79,33.26 200.61,29.72 200.52,26.19 C202.83,26.17 205.16,26.15 207.48,26.11 C206.72,21.88 205.93,17.67 205.27,13.43 C203.27,13.37 201.27,13.32 199.27,13.26 C199.03,9.72 198.96,6.17 199.05,2.63 L199.05,2.63 Z" id="path4037"></path>
                            <path d="M219.47,2.75 C226.96,2.56 234.46,2.73 241.96,2.64 C244.42,2.72 247.26,2.38 249.29,4.09 C251.02,5.5 251.36,7.83 251.79,9.88 C253.33,18.85 254.91,27.82 256.47,36.79 C252.73,36.75 248.99,36.98 245.27,36.75 C243,29.22 242.4,21.17 240.76,13.44 C238.18,13.37 235.62,13.36 233.05,13.42 C234.41,21.22 235.85,29.02 237.16,36.83 C233.3,36.8 229.44,36.8 225.58,36.85 C224.2,29.73 223.04,22.56 221.74,15.43 C222.58,14.76 223.43,14.09 224.29,13.42 C222.81,13.39 221.33,13.36 219.86,13.34 C219.69,9.81 219.54,6.28 219.47,2.75 L219.47,2.75 Z" id="path4039"></path>
                            <path d="M255.02,2.62 C264.04,2.79 273.07,2.49 282.09,2.76 C285.51,2.75 287.58,6.18 287.81,9.26 C289.12,18.4 292.04,27.46 290.92,36.78 C285.52,36.83 280.12,36.82 274.73,36.8 C274.44,33.26 274.15,29.71 273.87,26.17 C275.6,26.16 277.35,26.15 279.1,26.14 C278.47,21.87 277.67,17.64 276.92,13.39 C274.6,13.37 272.27,13.36 269.96,13.37 C270.52,21.19 271.17,29 271.7,36.83 C267.82,36.82 263.94,36.81 260.06,36.81 C259.61,29.69 258.85,22.58 258.52,15.45 C259.07,14.94 260.16,13.91 260.71,13.4 C258.91,13.36 257.13,13.33 255.34,13.29 C255.17,9.74 254.979,6.18 255.02,2.62 L255.02,2.62 Z" id="path4041"></path>
                            <path d="M292.04,2.64 C300.03,2.75 308.03,2.56 316.02,2.71 C319.14,2.58 321.85,5.12 322.24,8.16 C324.01,17.7 325.57,27.28 327.31,36.83 C323.44,36.82 319.57,36.81 315.71,36.83 C314.22,29.07 312.86,21.29 311.61,13.49 C305.08,13.25 298.54,13.42 292.01,13.37 C292.01,9.79 292,6.22 292.04,2.64 L292.04,2.64 Z" id="path4043"></path>
                            <path d="M165.14,19.23 C168.82,18.82 172.48,18.34 176.16,17.92 C177.24,24.22 178.36,30.51 179.45,36.81 C175.57,36.82 171.7,36.81 167.82,36.77 C166.93,30.93 165.93,25.1 165.14,19.23 L165.14,19.23 Z" id="path4045"></path>
                            <path d="M293.21,19.37 C296.89,18.74 300.6,18.3 304.32,17.98 C305.34,24.26 306.56,30.51 307.56,36.8 C303.68,36.83 299.8,36.82 295.93,36.78 C295.03,30.97 294.2,25.16 293.21,19.37 L293.21,19.37 Z" id="path4047"></path>
                            <path d="M75.90194,8.175332 C78.51194,5.575332 81.23194,3.075332 83.97194,0.595332 C88.72194,5.385332 93.62194,10.025332 98.49194,14.68533 C98.95194,10.295332 99.06194,5.845332 99.96194,1.505332 C103.96194,2.165332 107.80194,3.515332 111.74194,4.455332 C111.20194,9.885332 110.59194,15.30533 109.92194,20.71533 C109.89194,22.17533 108.81194,23.24533 108.12194,24.42533 C109.22194,26.95533 112.08194,28.10533 114.16194,29.74533 C113.84194,32.02533 113.53194,34.30533 113.22194,36.59533 C102.92194,36.62533 92.61194,36.68533 82.31194,36.55533 C82.25194,33.08533 82.04194,29.62533 81.93194,26.15533 C85.98194,26.20533 90.05194,26.25533 94.11194,26.02533 C88.08194,20.02533 81.93194,14.15533 75.90194,8.175332 L75.90194,8.175332 Z" id="path4049"></path>
                            <path d="M0.93344,2.645332 C4.90344,2.695332 8.89344,2.445332 12.86344,2.745332 C15.19344,2.925332 16.95344,4.995332 17.41344,7.185332 C18.46344,12.00533 19.11344,16.89533 20.01344,21.74533 C16.40344,22.27533 12.79344,22.77533 9.17344,23.14533 C8.67344,19.89533 8.10344,16.65533 7.59344,13.41533 C5.49344,13.35533 3.39344,13.29533 1.30344,13.23533 C1.26344,9.705332 1.20344,6.175332 0.93344,2.645332 L0.93344,2.645332 Z" id="path4051"></path>
                            <path d="M20.54687,2.655332 C24.63687,2.685332 28.73687,2.455332 32.82687,2.745332 C35.78687,2.985332 37.47687,5.975332 37.77687,8.675332 C39.35687,17.97533 41.05687,27.25533 42.65687,36.54533 C35.89687,36.67533 29.13687,36.61533 22.37687,36.61533 C22.36687,33.12533 22.36687,29.64533 22.38687,26.16533 C24.57687,26.17533 26.77687,26.19533 28.98687,26.22533 C28.50687,21.90533 27.64687,17.65533 26.94687,13.37533 C24.91687,13.34533 22.89687,13.34533 20.87687,13.34533 C20.84687,9.775332 20.73687,6.215332 20.54687,2.655332 L20.54687,2.655332 Z" id="path4053"></path>
                            <path d="M40.17344,2.578768 C44.10344,2.578768 48.04344,2.348768 51.97344,2.648768 C54.81344,3.008768 56.58344,5.848768 56.83344,8.518768 C58.35344,17.86877 60.26344,27.15877 61.62344,36.53877 C57.75344,36.51877 53.88344,36.53877 50.02344,36.49877 C48.71344,28.74877 47.31344,21.00877 45.99344,13.25877 C44.15344,13.23877 42.33344,13.21877 40.50344,13.19877 C40.29344,9.658768 40.17344,6.118768 40.17344,2.578768 L40.17344,2.578768 Z" id="path4055"></path>
                            <path d="M58.22436,3.477844 C61.85436,3.417844 65.49436,3.297844 69.12436,3.417844 C71.92436,3.267844 74.40436,5.577844 74.81436,8.277844 C75.78436,13.00784 76.49436,17.79785 77.33436,22.55785 C73.74436,23.02785 70.16436,23.51785 66.58436,23.98785 C65.98436,20.71785 65.40436,17.43785 64.84436,14.16785 C62.76436,14.12785 60.68436,14.09785 58.61436,14.05784 C58.65436,10.527844 58.52436,6.997844 58.22436,3.477844 L58.22436,3.477844 Z" id="path4057"></path>
                            <path d="M116.93344,19.13119 C120.56344,18.73119 124.19344,18.32119 127.82344,17.86119 C129.03344,24.10119 130.00344,30.38119 131.23344,36.62119 C127.28344,36.65119 123.34344,36.68119 119.41344,36.47119 C118.69344,30.67119 117.56344,24.93119 116.93344,19.13119 L116.93344,19.13119 Z" id="path4061"></path>
                        </g>
                    </g>
                </g>
            </g>
        </g>
    </g>
</svg>