<svg viewBox="0 0 327 37" xmlns="http://www.w3.org/2000/svg"><g fill="#203367" fill-rule="evenodd"><path d="M113.2 2.7h24.6c3 0 5.6 3 6 6l4.8 28H137c-1.3-8-3-15.7-4-23.5h-19.5c0-3.5 0-7-.3-10.5zM163.3 2.7h24.3c3 0 5.8 2.7 6 5.8l5 28.4H187c-1.4-7.8-2.8-15.6-4-23.5-6.5-.2-13 0-19.5 0l-.2-10.8zM198.5 2.7h12c2.7.3 4.7 3 5 5.8 1.7 9.4 3.2 19 5 28.3h-20.2l-.3-10.5h7l-2.3-12.8c-2 0-4 0-6-.2-.2-3.5-.3-7-.2-10.6zM219 2.8c7.4-.2 15 0 22.4 0 2.5 0 5.3-.3 7.4 1.4 1.7 1.4 2 3.7 2.5 5.8l4.6 27c-3.8-.2-7.5 0-11.3-.2-2.2-7.5-2.8-15.6-4.5-23.3h-7.7c1.4 7.8 2.8 15.6 4 23.4h-11.4l-3.8-21.5 2.6-2h-4.5c0-3.6-.3-7-.4-10.7zM254.5 2.7c9 .2 18 0 27 0 3.5 0 5.6 3.6 5.8 6.6 1.3 9.2 4.2 18.2 3 27.6h-16l-1-10.8h5.3l-2.2-12.7h-7l1.8 23.4h-11.7c-.4-7.2-1.2-14.3-1.5-21.5l2.2-2h-5.4l-.3-10.8zM291.5 2.7h24c3 0 5.8 2.5 6.2 5.5 1.8 9.6 3.3 19.2 5 28.7h-11.5c-1.5-8-3-15.6-4-23.4-6.6-.3-13.2 0-19.7-.2V2.7z"/><path d="M164.6 19.3c3.7-.4 7.4-1 11-1.3l3.3 19c-4 0-7.8 0-11.7-.2-1-5.8-2-11.6-2.7-17.5zM292.7 19.4c3.7-.6 7.4-1 11-1.3 1 6.3 2.3 12.6 3.3 19h-11.6c-1-6-1.7-11.8-2.7-17.6zM75.4 8.3l8-7.6C88.2 5.5 93 10 98 14.7c.4-4.3.5-8.8 1.4-13 4 .5 8 2 11.8 2.8-.5 5.5-1 11-1.8 16.3 0 1.5-1 2.5-1.8 3.7 1 2.5 4 3.7 6 5.3l-1 7c-10.2 0-20.5 0-30.8-.2 0-3.4-.3-7-.4-10.4h12.2L75.4 8zM.4 2.7c4 0 8-.2 12 0 2.3.3 4 2.4 4.5 4.6 1 4.8 1.6 9.7 2.5 14.5-3.6.6-7.2 1-11 1.4l-1.4-9.7c-2 0-4 0-6.2-.2 0-3.5 0-7-.4-10.6zM20 2.7c4 0 8.2-.2 12.3 0 3 .4 4.7 3.4 5 6 1.5 9.4 3.2 18.6 4.8 28H22c-.2-3.5-.2-7 0-10.5h6.5c-.5-4.2-1.4-8.5-2-12.7h-6L20 2.6zM39.6 2.7c4 0 8-.3 11.8 0 3 .4 4.7 3.2 5 6 1.4 9.2 3.3 18.5 4.7 28H49.6l-4-23.4H40c-.2-3.6-.4-7-.4-10.6zM57.7 3.6c3.6 0 7.3-.2 11 0 2.7-.3 5.2 2 5.6 4.8 1 4.7 1.7 9.5 2.5 14.2L66 24c-.5-3.2-1-6.5-1.7-9.8H58c0-3.6 0-7-.3-10.6zM116.4 19.2l11-1.3c1 6.2 2 12.5 3.3 18.7-4 0-8 0-11.8-.2-.8-5.8-2-11.5-2.6-17.3z"/></g></svg>